<?xml version="1.0" encoding="UTF-8" standalone="no"?>
<!-- Created with Inkscape (http://www.inkscape.org/) -->

<svg
   width="1535.6051"
   height="1283.4703"
   viewBox="0 0 406.2955 339.58485"
   version="1.1"
   id="svg1"
   inkscape:version="1.4.3 (0d15f75042, 2025-12-25)"
   sodipodi:docname="bg-svg.svg"
   inkscape:export-filename="run-bg.png"
   inkscape:export-xdpi="96"
   inkscape:export-ydpi="96"
   xmlns:inkscape="http://www.inkscape.org/namespaces/inkscape"
   xmlns:sodipodi="http://sodipodi.sourceforge.net/DTD/sodipodi-0.dtd"
   xmlns:xlink="http://www.w3.org/1999/xlink"
   xmlns="http://www.w3.org/2000/svg"
   xmlns:svg="http://www.w3.org/2000/svg">
  <sodipodi:namedview
     id="namedview1"
     pagecolor="#505050"
     bordercolor="#ffffff"
     borderopacity="1"
     inkscape:showpageshadow="0"
     inkscape:pageopacity="0"
     inkscape:pagecheckerboard="1"
     inkscape:deskcolor="#505050"
     inkscape:document-units="px"
     inkscape:zoom="0.40202717"
     inkscape:cx="890.48708"
     inkscape:cy="774.82325"
     inkscape:window-width="1712"
     inkscape:window-height="894"
     inkscape:window-x="0"
     inkscape:window-y="0"
     inkscape:window-maximized="1"
     inkscape:current-layer="layer1"
     showguides="false" />
  <defs
     id="defs1">
    <inkscape:path-effect
       effect="bspline"
       id="path-effect23"
       is_visible="true"
       lpeversion="1.3"
       weight="33.333333"
       steps="2"
       helper_size="0"
       apply_no_weight="true"
       apply_with_weight="true"
       only_selected="false"
       uniform="false" />
    <linearGradient
       id="linearGradient22"
       inkscape:collect="always">
      <stop
         style="stop-color:#d0f0fd;stop-opacity:1;"
         offset="0"
         id="stop21" />
      <stop
         style="stop-color:#d0f1fc;stop-opacity:0;"
         offset="1"
         id="stop22" />
    </linearGradient>
    <linearGradient
       id="linearGradient17"
       inkscape:collect="always">
      <stop
         style="stop-color:#cdeef8;stop-opacity:1;"
         offset="0"
         id="stop17" />
      <stop
         style="stop-color:#5fd0f0;stop-opacity:0;"
         offset="1"
         id="stop18" />
    </linearGradient>
    <linearGradient
       id="linearGradient14"
       inkscape:collect="always">
      <stop
         style="stop-color:#5dd1f1;stop-opacity:1;"
         offset="0"
         id="stop14" />
      <stop
         style="stop-color:#5dd1f1;stop-opacity:0;"
         offset="1"
         id="stop15" />
    </linearGradient>
    <inkscape:path-effect
       effect="bspline"
       id="path-effect13"
       is_visible="true"
       lpeversion="1.3"
       weight="33.333333"
       steps="2"
       helper_size="0"
       apply_no_weight="true"
       apply_with_weight="true"
       only_selected="false"
       uniform="false" />
    <inkscape:path-effect
       effect="bspline"
       id="path-effect12"
       is_visible="true"
       lpeversion="1.3"
       weight="33.333333"
       steps="2"
       helper_size="0"
       apply_no_weight="true"
       apply_with_weight="true"
       only_selected="false"
       uniform="false" />
    <inkscape:path-effect
       effect="spiro"
       id="path-effect11"
       is_visible="true"
       lpeversion="1" />
    <inkscape:path-effect
       effect="spiro"
       id="path-effect10"
       is_visible="true"
       lpeversion="1" />
    <linearGradient
       id="linearGradient1"
       inkscape:collect="always">
      <stop
         style="stop-color:#7a4feb;stop-opacity:1;"
         offset="0"
         id="stop1" />
      <stop
         style="stop-color:#4715c8;stop-opacity:1;"
         offset="0.28560913"
         id="stop3" />
      <stop
         style="stop-color:#1213a1;stop-opacity:1;"
         offset="0.51110733"
         id="stop4" />
      <stop
         style="stop-color:#12589e;stop-opacity:1;"
         offset="0.74024004"
         id="stop5" />
      <stop
         style="stop-color:#1c094c;stop-opacity:1;"
         offset="1"
         id="stop2" />
    </linearGradient>
    <radialGradient
       inkscape:collect="always"
       xlink:href="#linearGradient1"
       id="radialGradient2"
       cx="264.56131"
       cy="290.95361"
       fx="264.56131"
       fy="290.95361"
       r="227.54166"
       gradientTransform="matrix(1.077619,0,0,0.74620361,8.1871963,103.11117)"
       gradientUnits="userSpaceOnUse" />
    <inkscape:path-effect
       effect="bspline"
       id="path-effect13-9"
       is_visible="true"
       lpeversion="1.3"
       weight="33.333333"
       steps="2"
       helper_size="0"
       apply_no_weight="true"
       apply_with_weight="true"
       only_selected="false"
       uniform="false" />
    <filter
       inkscape:collect="always"
       style="color-interpolation-filters:sRGB"
       id="filter13"
       x="-0.047062969"
       y="-0.10756717"
       width="1.0941259"
       height="1.2151343">
      <feGaussianBlur
         inkscape:collect="always"
         stdDeviation="5.0556197"
         id="feGaussianBlur13" />
    </filter>
    <filter
       inkscape:collect="always"
       style="color-interpolation-filters:sRGB"
       id="filter13-6"
       x="-0.051946687"
       y="-0.11872941"
       width="1.1038934"
       height="1.2374588">
      <feGaussianBlur
         inkscape:collect="always"
         stdDeviation="5.5802407"
         id="feGaussianBlur13-1" />
    </filter>
    <inkscape:path-effect
       effect="bspline"
       id="path-effect13-9-8"
       is_visible="true"
       lpeversion="1.3"
       weight="33.333333"
       steps="2"
       helper_size="0"
       apply_no_weight="true"
       apply_with_weight="true"
       only_selected="false"
       uniform="false" />
    <inkscape:path-effect
       effect="bspline"
       id="path-effect12-3"
       is_visible="true"
       lpeversion="1.3"
       weight="33.333333"
       steps="2"
       helper_size="0"
       apply_no_weight="true"
       apply_with_weight="true"
       only_selected="false"
       uniform="false" />
    <filter
       inkscape:collect="always"
       style="color-interpolation-filters:sRGB"
       id="filter14"
       x="-0.12572487"
       y="-0.24627426"
       width="1.2514497"
       height="1.4925485">
      <feGaussianBlur
         inkscape:collect="always"
         stdDeviation="11.020705"
         id="feGaussianBlur14" />
    </filter>
    <linearGradient
       inkscape:collect="always"
       xlink:href="#linearGradient14"
       id="linearGradient15"
       x1="143.6552"
       y1="250.38828"
       x2="354.03277"
       y2="250.38828"
       gradientUnits="userSpaceOnUse" />
    <filter
       inkscape:collect="always"
       style="color-interpolation-filters:sRGB"
       id="filter13-6-8"
       x="-0.094781687"
       y="-0.21663313"
       width="1.1895634"
       height="1.4332663">
      <feGaussianBlur
         inkscape:collect="always"
         stdDeviation="10.181682"
         id="feGaussianBlur13-1-9" />
    </filter>
    <inkscape:path-effect
       effect="bspline"
       id="path-effect13-9-8-7"
       is_visible="true"
       lpeversion="1.3"
       weight="33.333333"
       steps="2"
       helper_size="0"
       apply_no_weight="true"
       apply_with_weight="true"
       only_selected="false"
       uniform="false" />
    <inkscape:path-effect
       effect="spiro"
       id="path-effect11-3"
       is_visible="true"
       lpeversion="1" />
    <filter
       inkscape:collect="always"
       style="color-interpolation-filters:sRGB"
       id="filter15"
       x="-0.15647441"
       y="-0.15765145"
       width="1.3129488"
       height="1.3153029">
      <feGaussianBlur
         inkscape:collect="always"
         stdDeviation="14.758133"
         id="feGaussianBlur15" />
    </filter>
    <radialGradient
       inkscape:collect="always"
       xlink:href="#linearGradient22"
       id="radialGradient18"
       cx="297.94051"
       cy="297.9045"
       fx="297.94051"
       fy="297.9045"
       r="113.17991"
       gradientTransform="matrix(1,0,0,0.99253394,0,2.2241743)"
       gradientUnits="userSpaceOnUse" />
    <filter
       inkscape:collect="always"
       style="color-interpolation-filters:sRGB"
       id="filter13-6-2"
       x="-0.2191475"
       y="-0.50088377"
       width="1.438295"
       height="2.0017675">
      <feGaussianBlur
         inkscape:collect="always"
         stdDeviation="23.541362"
         id="feGaussianBlur13-1-0" />
    </filter>
    <inkscape:path-effect
       effect="bspline"
       id="path-effect13-9-8-6"
       is_visible="true"
       lpeversion="1.3"
       weight="33.333333"
       steps="2"
       helper_size="0"
       apply_no_weight="true"
       apply_with_weight="true"
       only_selected="false"
       uniform="false" />
    <inkscape:path-effect
       effect="spiro"
       id="path-effect10-6"
       is_visible="true"
       lpeversion="1" />
    <filter
       inkscape:collect="always"
       style="color-interpolation-filters:sRGB"
       id="filter18"
       x="-0.058713653"
       y="-0.10139371"
       width="1.1174273"
       height="1.2027874">
      <feGaussianBlur
         inkscape:collect="always"
         stdDeviation="4.0502629"
         id="feGaussianBlur18" />
    </filter>
    <filter
       inkscape:collect="always"
       style="color-interpolation-filters:sRGB"
       id="filter19"
       x="-0.11835533"
       y="-0.20439004"
       width="1.2367107"
       height="1.4087801">
      <feGaussianBlur
         inkscape:collect="always"
         stdDeviation="8.1645437"
         id="feGaussianBlur19" />
    </filter>
    <filter
       inkscape:collect="always"
       style="color-interpolation-filters:sRGB"
       id="filter13-6-4"
       x="-0.14339534"
       y="-0.32774456"
       width="1.2867907"
       height="1.6554891">
      <feGaussianBlur
         inkscape:collect="always"
         stdDeviation="15.40388"
         id="feGaussianBlur13-1-5" />
    </filter>
    <inkscape:path-effect
       effect="bspline"
       id="path-effect13-9-8-2"
       is_visible="true"
       lpeversion="1.3"
       weight="33.333333"
       steps="2"
       helper_size="0"
       apply_no_weight="true"
       apply_with_weight="true"
       only_selected="false"
       uniform="false" />
    <filter
       inkscape:collect="always"
       style="color-interpolation-filters:sRGB"
       id="filter13-6-3"
       x="-0.14339534"
       y="-0.32774456"
       width="1.2867907"
       height="1.6554891">
      <feGaussianBlur
         inkscape:collect="always"
         stdDeviation="15.40388"
         id="feGaussianBlur13-1-07" />
    </filter>
    <inkscape:path-effect
       effect="bspline"
       id="path-effect13-9-8-8"
       is_visible="true"
       lpeversion="1.3"
       weight="33.333333"
       steps="2"
       helper_size="0"
       apply_no_weight="true"
       apply_with_weight="true"
       only_selected="false"
       uniform="false" />
    <filter
       inkscape:collect="always"
       style="color-interpolation-filters:sRGB"
       id="filter13-6-1"
       x="-0.14339534"
       y="-0.32774456"
       width="1.2867907"
       height="1.6554891">
      <feGaussianBlur
         inkscape:collect="always"
         stdDeviation="15.40388"
         id="feGaussianBlur13-1-4" />
    </filter>
    <inkscape:path-effect
       effect="bspline"
       id="path-effect13-9-8-9"
       is_visible="true"
       lpeversion="1.3"
       weight="33.333333"
       steps="2"
       helper_size="0"
       apply_no_weight="true"
       apply_with_weight="true"
       only_selected="false"
       uniform="false" />
    <filter
       inkscape:collect="always"
       style="color-interpolation-filters:sRGB"
       id="filter20"
       x="-0.10227275"
       y="-0.1870341"
       width="1.2045455"
       height="1.3740682">
      <feGaussianBlur
         inkscape:collect="always"
         stdDeviation="11.002396"
         id="feGaussianBlur20" />
    </filter>
    <filter
       inkscape:collect="always"
       style="color-interpolation-filters:sRGB"
       id="filter13-6-26"
       x="-0.14339534"
       y="-0.32774456"
       width="1.2867907"
       height="1.6554891">
      <feGaussianBlur
         inkscape:collect="always"
         stdDeviation="15.40388"
         id="feGaussianBlur13-1-6" />
    </filter>
    <inkscape:path-effect
       effect="bspline"
       id="path-effect13-9-8-4"
       is_visible="true"
       lpeversion="1.3"
       weight="33.333333"
       steps="2"
       helper_size="0"
       apply_no_weight="true"
       apply_with_weight="true"
       only_selected="false"
       uniform="false" />
    <radialGradient
       inkscape:collect="always"
       xlink:href="#linearGradient17"
       id="radialGradient18-7"
       cx="297.94052"
       cy="297.90451"
       fx="297.94052"
       fy="297.90451"
       r="113.17991"
       gradientTransform="matrix(1,0,0,0.99253394,0,2.2241743)"
       gradientUnits="userSpaceOnUse" />
    <inkscape:path-effect
       effect="spiro"
       id="path-effect11-2"
       is_visible="true"
       lpeversion="1" />
    <filter
       inkscape:collect="always"
       style="color-interpolation-filters:sRGB"
       id="filter21"
       x="-0.21506331"
       y="-0.21668107"
       width="1.4301266"
       height="1.4333621">
      <feGaussianBlur
         inkscape:collect="always"
         stdDeviation="20.284039"
         id="feGaussianBlur21" />
    </filter>
    <filter
       inkscape:collect="always"
       style="color-interpolation-filters:sRGB"
       id="filter22"
       x="-0.59554519"
       y="-0.60002502"
       width="2.1910904"
       height="2.20005">
      <feGaussianBlur
         inkscape:collect="always"
         stdDeviation="56.169792"
         id="feGaussianBlur22" />
    </filter>
    <filter
       inkscape:collect="always"
       style="color-interpolation-filters:sRGB"
       id="filter23"
       x="-0.061710516"
       y="-0.12088071"
       width="1.123421"
       height="1.2417614">
      <feGaussianBlur
         inkscape:collect="always"
         stdDeviation="5.4093786"
         id="feGaussianBlur23" />
    </filter>
    <filter
       inkscape:collect="always"
       style="color-interpolation-filters:sRGB"
       id="filter24"
       x="-0.10937369"
       y="-0.12217895"
       width="1.2187474"
       height="1.2443579">
      <feGaussianBlur
         inkscape:collect="always"
         stdDeviation="3.3803153"
         id="feGaussianBlur24" />
    </filter>
    <filter
       inkscape:collect="always"
       style="color-interpolation-filters:sRGB"
       id="filter1"
       x="-0.016069925"
       y="-0.019226825"
       width="1.0321398"
       height="1.0384536">
      <feGaussianBlur
         inkscape:collect="always"
         stdDeviation="2.7204743"
         id="feGaussianBlur1" />
    </filter>
    <filter
       inkscape:collect="always"
       style="color-interpolation-filters:sRGB"
       id="filter2"
       x="-0.41808403"
       y="-0.41602449"
       width="1.8361681"
       height="1.832049">
      <feGaussianBlur
         inkscape:collect="always"
         stdDeviation="36.640454"
         id="feGaussianBlur2" />
    </filter>
  </defs>
  <g
     inkscape:label="Layer 1"
     inkscape:groupmode="layer"
     id="layer1"
     transform="translate(-89.189758,-150.33348)">
    <rect
       style="opacity:1;fill:#8bcee1;fill-opacity:1;stroke-width:0.216319"
       id="rect1-2"
       width="406.2955"
       height="339.58484"
       x="89.189758"
       y="150.33348"
       ry="0.026928555"
       inkscape:export-filename="bg.png"
       inkscape:export-xdpi="96"
       inkscape:export-ydpi="96" />
    <path
       id="rect1-2-1"
       style="fill:#9168d8;fill-opacity:1;stroke-width:0.216319"
       d="m 88.776759,150.10284 c -0.01361,0.001 -0.02428,0.0129 -0.02428,0.0269 V 489.6604 c 0,0.0149 0.01195,0.0274 0.02687,0.0274 H 495.0212 c 0.0149,0 0.0269,-0.0125 0.0269,-0.0274 V 150.12972 c 0,-0.0149 -0.012,-0.0269 -0.0269,-0.0269 H 88.779349 c -9.3e-4,0 -0.0017,-9e-5 -0.0026,0 z m 39.681821,39.6875 c 6.9e-4,-7e-5 0.001,0 0.002,0 h 326.87926 c 0.0114,0 0.0207,0.009 0.0207,0.0207 v 260.16861 c 0,0.0114 -0.009,0.0202 -0.0207,0.0202 H 128.46065 c -0.0114,0 -0.0207,-0.009 -0.0207,-0.0202 V 189.81101 c 0,-0.0107 0.008,-0.0196 0.0186,-0.0207 z" />
    <path
       style="opacity:0.460183;fill:#caf0f7;fill-opacity:1;stroke:none;stroke-width:0.0264583;filter:url(#filter24)"
       d="m 350.27405,190.62582 c 1.7573,-6.40159 -0.50208,-16.19225 5.52307,-21.58968 6.02516,-5.39742 20.33431,-6.40157 27.74007,-3.76556 7.40576,2.63601 7.90784,8.91195 12.67773,12.6776 4.7699,3.76565 13.80728,5.02084 14.05824,9.16311 0.25095,4.14227 -8.28434,11.17133 -13.05416,14.43488 -4.76982,3.26354 -5.77397,2.76147 -4.89529,8.03348 0.87867,5.272 3.64008,16.31765 -1.00432,19.58116 -4.6444,3.26351 -16.69421,-1.25517 -22.21714,-5.77398 -5.52293,-4.51881 -4.51877,-9.03749 -9.41421,-10.9203 -4.89544,-1.88281 -15.69006,-1.1297 -20.45986,-2.25942 -4.76979,-1.12972 -3.5146,-4.14218 5e-5,-7.15472 3.51466,-3.01254 9.28852,-6.02499 11.04582,-12.42657 z"
       id="path23"
       inkscape:path-effect="#path-effect23"
       inkscape:original-d="m 354.29074,194.01489 c -2.25939,-9.79066 -4.51878,-19.58132 -6.77816,-29.37198 14.3097,-1.00419 28.61885,-2.00834 42.92828,-3.01251 0.5021,6.27619 1.00417,12.55213 1.50625,18.82819 9.03771,1.25524 18.07509,2.51042 27.11262,3.76564 -8.53562,7.02933 -17.07092,14.05838 -25.60635,21.08758 -1.0042,-0.5021 -2.00835,-1.00417 -3.01252,-1.50626 2.76154,11.0461 5.52294,22.09175 8.28439,33.13762 -12.05026,-4.51885 -24.10007,-9.03753 -36.15012,-13.5563 1.0042,-4.51885 2.00835,-9.03753 3.01252,-13.5563 -10.79505,0.75315 -21.58967,1.50626 -32.3845,2.25939 1.25524,-3.01257 2.51043,-6.02503 3.76564,-9.03754 5.7741,-3.01257 11.54796,-6.02502 17.32195,-9.03753 z" />
    <rect
       style="opacity:0.426866;mix-blend-mode:normal;fill:url(#radialGradient2);stroke-width:0.216319;filter:url(#filter1)"
       id="rect1"
       width="406.2955"
       height="339.58484"
       x="90.135742"
       y="150.42943"
       ry="0.026928555"
       inkscape:export-filename="bg.png"
       inkscape:export-xdpi="96"
       inkscape:export-ydpi="96" />
    <path
       style="opacity:0.46018335;mix-blend-mode:normal;fill:#67d4f2;fill-opacity:1;stroke-width:0.0264583;filter:url(#filter18)"
       d="m 133.15493,227.47991 c 0.14942,-7.74095 -2.14026,-15.30586 -2.98275,-23.00228 -0.42124,-3.84821 -0.47643,-7.77111 0.31186,-11.56119 0.78829,-3.79009 2.4609,-7.45565 5.15948,-10.23123 2.05332,-2.1119 4.65479,-3.66055 7.44343,-4.60907 2.78864,-0.94853 5.76108,-1.30755 8.70499,-1.20943 5.88782,0.19626 11.57357,2.18595 16.94192,4.612 5.36835,2.42606 10.53206,5.30995 16.01609,7.46178 5.48402,2.15183 11.40615,3.56463 17.25609,2.86957 7.7085,-0.91588 14.48031,-5.34039 21.01733,-9.52692 3.26852,-2.09327 6.56835,-4.16303 10.09772,-5.77813 3.52936,-1.6151 7.31357,-2.77147 11.19106,-2.94465 4.89177,-0.21848 9.78329,1.15047 14.08129,3.49661 4.298,2.34614 8.02783,5.64076 11.24342,9.33361 6.43119,7.38571 10.81953,16.28439 16.15187,24.4987 3.59131,5.5323 7.71722,10.97637 9.12484,17.42016 0.99923,4.57424 0.52406,9.44133 -1.23025,13.78235 -1.75432,4.34102 -4.76724,8.14768 -8.51805,10.9501 -3.7508,2.80242 -8.22362,4.60518 -12.85268,5.30798 -4.62906,0.7028 -9.40683,0.31527 -13.8984,-1.00683 -5.17805,-1.52416 -9.91307,-4.24306 -14.91232,-6.27844 -2.49963,-1.01769 -5.08131,-1.86841 -7.74668,-2.29226 -2.66536,-0.42385 -5.42368,-0.41148 -8.03367,0.27539 -3.36446,0.88543 -6.35498,2.85187 -8.9819,5.13284 -2.62693,2.28097 -4.94386,4.89211 -7.42156,7.33436 -2.47769,2.44225 -5.16097,4.74583 -8.2984,6.24918 -3.13744,1.50334 -6.79401,2.1506 -10.13846,1.19238 -3.50882,-1.00531 -6.34908,-3.67295 -8.32997,-6.73865 -1.98088,-3.0657 -3.21438,-6.54173 -4.48773,-9.96241 -1.27335,-3.42067 -2.62875,-6.86704 -4.80811,-9.79498 -1.08968,-1.46397 -2.38277,-2.7873 -3.88758,-3.81985 -1.50481,-1.03255 -3.22621,-1.7692 -5.03162,-2.03584 -2.71383,-0.4008 -5.48779,0.26926 -8.01903,1.32677 -2.53124,1.0575 -4.88266,2.4957 -7.33155,3.73201 -2.44888,1.23631 -5.05406,2.28525 -7.79085,2.47357 -1.3684,0.0942 -2.75879,-0.0319 -4.06622,-0.44667 -1.30742,-0.41474 -2.53009,-1.12387 -3.48502,-2.10849 -1.71216,-1.7654 -2.44927,-4.27849 -2.63984,-6.73039 -0.19056,-2.45191 0.10379,-4.91281 0.15125,-7.37165 z"
       id="path10-9"
       inkscape:path-effect="#path-effect10-6"
       inkscape:original-d="m 133.15493,227.47991 c -0.82953,-4.70068 1.10604,-29.31011 2.48859,-44.7947 1.38256,-15.48459 44.51819,5.53021 66.36252,9.12485 21.84433,3.59463 28.20407,-11.88996 42.30611,-18.2497 14.10204,-6.35974 27.65105,24.88595 41.47658,37.32892 13.82552,12.44297 5.53021,11.33693 9.12484,17.42016 3.59464,6.08323 -24.05641,19.90876 -36.49938,29.0336 -12.44298,9.12485 -20.18527,-5.25369 -30.69267,-8.29531 -10.5074,-3.04161 -23.22688,12.44297 -34.84032,19.90876 -11.61344,7.46578 -18.2497,-21.29131 -26.54501,-32.35173 -8.29532,-11.06042 -19.90876,3.31812 -30.69267,4.97719 -10.78391,1.65906 -1.65906,-9.40136 -2.48859,-14.10204 z"
       transform="translate(-27.828969,188.77169)" />
    <path
       style="opacity:1;mix-blend-mode:normal;fill:#caf0f7;fill-opacity:1;stroke-width:0.0264583;filter:url(#filter19)"
       d="m 133.15493,227.47991 c 0.14942,-7.74095 -2.14026,-15.30586 -2.98275,-23.00228 -0.42124,-3.84821 -0.47643,-7.77111 0.31186,-11.56119 0.78829,-3.79009 2.4609,-7.45565 5.15948,-10.23123 2.05332,-2.1119 4.65479,-3.66055 7.44343,-4.60907 2.78864,-0.94853 5.76108,-1.30755 8.70499,-1.20943 5.88782,0.19626 11.57357,2.18595 16.94192,4.612 5.36835,2.42606 10.53206,5.30995 16.01609,7.46178 5.48402,2.15183 11.40615,3.56463 17.25609,2.86957 7.7085,-0.91588 14.48031,-5.34039 21.01733,-9.52692 3.26852,-2.09327 6.56835,-4.16303 10.09772,-5.77813 3.52936,-1.6151 7.31357,-2.77147 11.19106,-2.94465 4.89177,-0.21848 9.78329,1.15047 14.08129,3.49661 4.298,2.34614 8.02783,5.64076 11.24342,9.33361 6.43119,7.38571 10.81953,16.28439 16.15187,24.4987 3.59131,5.5323 7.71722,10.97637 9.12484,17.42016 0.99923,4.57424 0.52406,9.44133 -1.23025,13.78235 -1.75432,4.34102 -4.76724,8.14768 -8.51805,10.9501 -3.7508,2.80242 -8.22362,4.60518 -12.85268,5.30798 -4.62906,0.7028 -9.40683,0.31527 -13.8984,-1.00683 -5.17805,-1.52416 -9.91307,-4.24306 -14.91232,-6.27844 -2.49963,-1.01769 -5.08131,-1.86841 -7.74668,-2.29226 -2.66536,-0.42385 -5.42368,-0.41148 -8.03367,0.27539 -3.36446,0.88543 -6.35498,2.85187 -8.9819,5.13284 -2.62693,2.28097 -4.94386,4.89211 -7.42156,7.33436 -2.47769,2.44225 -5.16097,4.74583 -8.2984,6.24918 -3.13744,1.50334 -6.79401,2.1506 -10.13846,1.19238 -3.50882,-1.00531 -6.34908,-3.67295 -8.32997,-6.73865 -1.98088,-3.0657 -3.21438,-6.54173 -4.48773,-9.96241 -1.27335,-3.42067 -2.62875,-6.86704 -4.80811,-9.79498 -1.08968,-1.46397 -2.38277,-2.7873 -3.88758,-3.81985 -1.50481,-1.03255 -3.22621,-1.7692 -5.03162,-2.03584 -2.71383,-0.4008 -5.48779,0.26926 -8.01903,1.32677 -2.53124,1.0575 -4.88266,2.4957 -7.33155,3.73201 -2.44888,1.23631 -5.05406,2.28525 -7.79085,2.47357 -1.3684,0.0942 -2.75879,-0.0319 -4.06622,-0.44667 -1.30742,-0.41474 -2.53009,-1.12387 -3.48502,-2.10849 -1.71216,-1.7654 -2.44927,-4.27849 -2.63984,-6.73039 -0.19056,-2.45191 0.10379,-4.91281 0.15125,-7.37165 z"
       id="path10"
       inkscape:path-effect="#path-effect10"
       inkscape:original-d="m 133.15493,227.47991 c -0.82953,-4.70068 1.10604,-29.31011 2.48859,-44.7947 1.38256,-15.48459 44.51819,5.53021 66.36252,9.12485 21.84433,3.59463 28.20407,-11.88996 42.30611,-18.2497 14.10204,-6.35974 27.65105,24.88595 41.47658,37.32892 13.82552,12.44297 5.53021,11.33693 9.12484,17.42016 3.59464,6.08323 -24.05641,19.90876 -36.49938,29.0336 -12.44298,9.12485 -20.18527,-5.25369 -30.69267,-8.29531 -10.5074,-3.04161 -23.22688,12.44297 -34.84032,19.90876 -11.61344,7.46578 -18.2497,-21.29131 -26.54501,-32.35173 -8.29532,-11.06042 -19.90876,3.31812 -30.69267,4.97719 -10.78391,1.65906 -1.65906,-9.40136 -2.48859,-14.10204 z"
       transform="translate(-24.471163,192.92087)" />
    <ellipse
       style="opacity:0.80531792;fill:#ffd900;fill-opacity:1;stroke:#000000;stroke-width:0.0435465;filter:url(#filter2)"
       id="path1"
       cx="353.65637"
       cy="310.49359"
       rx="105.1928"
       ry="105.71356"
       transform="matrix(0.83009378,0,0,0.83009378,50.305053,54.071039)" />
    <path
       style="mix-blend-mode:normal;fill:#b8ebf9;fill-opacity:1;stroke-width:0.0264583;filter:url(#filter14)"
       d="m 161.32438,293.99215 c -5.21908,-5.40342 -14.62044,-15.63431 -17.03759,-24.04241 -2.41714,-8.4081 2.14973,-14.99317 12.90785,-17.12258 10.75811,-2.12941 27.7067,0.19687 35.79343,-4.84362 8.08673,-5.04049 7.31131,-17.4473 13.45958,-28.6913 6.14827,-11.24399 19.21973,-21.32453 31.34996,-22.48761 12.13022,-1.16308 23.3185,6.59117 31.01757,15.50884 7.69906,8.91768 11.90852,18.99821 17.39206,25.09098 5.48354,6.09277 12.24082,8.1975 21.32467,5.98189 9.08385,-2.21561 20.49369,-8.75134 29.41133,-6.64647 8.91763,2.10488 15.34259,12.85006 16.78266,23.76174 1.44007,10.91168 -2.10473,21.98918 -12.4072,28.35889 -10.30246,6.36971 -27.36182,8.03134 -49.40677,10.02535 -22.04495,1.99402 -49.07407,4.32029 -69.0695,4.98494 -19.99543,0.66466 -32.95612,-0.33232 -40.82133,-1.16315 -7.86522,-0.83084 -10.63459,-1.49549 -12.53772,-2.1158 -1.90313,-0.62032 -2.93992,-1.19627 -8.159,-6.59969 z"
       id="path12-9"
       inkscape:path-effect="#path-effect12-3"
       inkscape:original-d="m 165.50666,298.81962 c -9.40136,-10.23089 -18.80272,-20.46178 -28.20407,-30.69266 4.56705,-6.58533 9.13393,-13.17039 13.7009,-19.75558 16.94926,2.32637 33.89785,4.65265 50.84677,6.97897 -0.77545,-12.4073 -1.55088,-24.81411 -2.32632,-37.22117 13.07198,-10.08093 26.14344,-20.16147 39.21516,-30.2422 11.18873,7.75457 22.37701,15.50882 33.56552,23.26323 4.20962,10.08094 8.41908,20.16147 12.62861,30.2422 6.75755,2.10482 13.51483,4.20954 20.27225,6.31431 11.41028,-6.53599 22.82012,-13.07172 34.23018,-19.60758 6.42521,10.74561 12.85016,21.49079 19.27526,32.23619 -3.54497,11.07795 -7.08976,22.15546 -10.63463,33.23319 -17.06005,1.66169 -34.11941,3.32332 -51.17911,4.98498 -27.0302,2.32637 -54.05932,4.65264 -81.08898,6.97896 -12.9612,-0.99701 -25.92189,-1.99398 -38.88283,-2.99098 -2.76949,-0.66468 -5.53886,-1.32933 -8.30829,-1.99399 -1.03683,-0.57597 -2.07362,-1.15191 -3.11042,-1.72787 z"
       transform="translate(-38.427953,30.227011)" />
    <path
       style="opacity:0.60179228;fill:url(#linearGradient15);fill-opacity:1;stroke-width:0.0264583;filter:url(#filter23)"
       d="m 161.32438,293.99215 c -5.21908,-5.40342 -14.62044,-15.63431 -17.03759,-24.04241 -2.41714,-8.4081 2.14973,-14.99317 12.90785,-17.12258 10.75811,-2.12941 27.7067,0.19687 35.79343,-4.84362 8.08673,-5.04049 7.31131,-17.4473 13.45958,-28.6913 6.14827,-11.24399 19.21973,-21.32453 31.34996,-22.48761 12.13022,-1.16308 23.3185,6.59117 31.01757,15.50884 7.69906,8.91768 11.90852,18.99821 17.39206,25.09098 5.48354,6.09277 12.24082,8.1975 21.32467,5.98189 9.08385,-2.21561 20.49369,-8.75134 29.41133,-6.64647 8.91763,2.10488 15.34259,12.85006 16.78266,23.76174 1.44007,10.91168 -2.10473,21.98918 -12.4072,28.35889 -10.30246,6.36971 -27.36182,8.03134 -49.40677,10.02535 -22.04495,1.99402 -49.07407,4.32029 -69.0695,4.98494 -19.99543,0.66466 -32.95612,-0.33232 -40.82133,-1.16315 -7.86522,-0.83084 -10.63459,-1.49549 -12.53772,-2.1158 -1.90313,-0.62032 -2.93992,-1.19627 -8.159,-6.59969 z"
       id="path12"
       inkscape:path-effect="#path-effect12"
       inkscape:original-d="m 165.50666,298.81962 c -9.40136,-10.23089 -18.80272,-20.46178 -28.20407,-30.69266 4.56705,-6.58533 9.13393,-13.17039 13.7009,-19.75558 16.94926,2.32637 33.89785,4.65265 50.84677,6.97897 -0.77545,-12.4073 -1.55088,-24.81411 -2.32632,-37.22117 13.07198,-10.08093 26.14344,-20.16147 39.21516,-30.2422 11.18873,7.75457 22.37701,15.50882 33.56552,23.26323 4.20962,10.08094 8.41908,20.16147 12.62861,30.2422 6.75755,2.10482 13.51483,4.20954 20.27225,6.31431 11.41028,-6.53599 22.82012,-13.07172 34.23018,-19.60758 6.42521,10.74561 12.85016,21.49079 19.27526,32.23619 -3.54497,11.07795 -7.08976,22.15546 -10.63463,33.23319 -17.06005,1.66169 -34.11941,3.32332 -51.17911,4.98498 -27.0302,2.32637 -54.05932,4.65264 -81.08898,6.97896 -12.9612,-0.99701 -25.92189,-1.99398 -38.88283,-2.99098 -2.76949,-0.66468 -5.53886,-1.32933 -8.30829,-1.99399 -1.03683,-0.57597 -2.07362,-1.15191 -3.11042,-1.72787 z"
       transform="matrix(0.92286354,0,0,0.92286354,-20.550313,47.556351)" />
    <path
       style="mix-blend-mode:normal;fill:#b8ebf9;fill-opacity:1;stroke-width:0.0264583;filter:url(#filter13)"
       d="m 151.19728,424.84854 c -1.7573,-1.12969 -1.7573,-1.12969 -1.7573,-1.12969 -9.28858,-16.81985 -18.57715,-33.6397 -16.06659,-43.43039 2.51057,-9.79068 16.81972,-12.5521 31.00376,-11.92445 14.18405,0.62764 28.24215,4.64425 36.15001,-2.7617 7.90786,-7.40595 9.66512,-26.23376 18.70282,-36.14996 9.0377,-9.91619 25.35514,-10.92034 36.77764,-3.51443 11.42251,7.40592 17.94948,23.22129 27.3637,25.85713 9.41422,2.63584 21.71506,-7.90773 34.26732,-12.80306 12.55226,-4.89532 25.35517,-4.14221 28.86971,4.26788 3.51454,8.41009 -2.25932,24.47649 3.38931,28.86966 5.64863,4.39317 22.71917,-2.88692 32.13328,1.63201 9.41412,4.51893 11.17139,20.83638 5.5228,30.2505 -5.64858,9.41411 -18.70253,11.92448 -25.85726,14.30942 -7.15474,2.38493 -8.40992,4.64428 -18.07524,6.02502 -9.66532,1.38073 -27.74003,1.88281 -39.91565,1.25518 -12.17563,-0.62762 -18.45157,-2.38489 -27.8658,-0.12544 -9.41423,2.25945 -21.96609,8.53538 -33.63968,8.40979 -11.67359,-0.12559 -22.46821,-6.65257 -32.88658,-7.40565 -10.41837,-0.75307 -20.45987,4.26768 -28.61881,5.89944 -8.15895,1.63176 -14.43489,-0.1255 -19.33025,-2.13386 -4.89536,-2.00836 -8.40989,-4.26771 -10.16719,-5.3974 z"
       id="path13-0"
       inkscape:path-effect="#path-effect13-9"
       inkscape:original-d="m 149.43998,423.71885 c 0,0 0,0 0,0 0,0 -18.57715,-33.6397 -27.86573,-50.45955 14.30971,-2.76153 28.61886,-5.52294 42.92828,-8.28441 14.05867,4.01676 28.11677,8.03336 42.17516,12.05005 1.75733,-18.82858 3.5146,-37.65639 5.27189,-56.48459 16.3181,-1.00419 32.63554,-2.00834 48.95331,-3.01251 6.52723,15.816 13.05421,31.63137 19.58132,47.44705 12.30133,-10.544 24.60217,-21.08758 36.90326,-31.63136 12.80343,0.75314 25.60634,1.50625 38.40951,2.25938 -5.77409,16.06705 -11.54795,32.13345 -17.32193,48.20017 17.07124,-7.28038 34.14178,-14.56047 51.21267,-21.8407 1.75734,16.31809 3.51462,32.63554 5.27191,48.9533 -13.05447,2.51048 -26.10842,5.02085 -39.16265,7.53127 -1.25523,2.25944 -2.51042,4.51879 -3.76563,6.77817 -18.07543,0.50208 -36.15014,1.00415 -54.2252,1.50625 -6.27619,-1.75733 -12.55213,-3.51459 -18.8282,-5.2719 -12.55238,6.27621 -25.10425,12.55212 -37.65638,18.8282 -10.79505,-6.52725 -21.58967,-13.05423 -32.3845,-19.58134 -10.0419,5.02097 -20.08341,10.04171 -30.12511,15.06257 -6.27619,-1.75733 -12.55213,-3.51459 -18.82819,-5.2719 -3.51467,-2.25941 -7.02919,-4.51877 -10.54379,-6.77815 z"
       transform="matrix(0.78772499,0,0,0.78772499,182.34549,121.50528)" />
    <path
       style="opacity:1;mix-blend-mode:normal;fill:#8fdff5;fill-opacity:1;stroke-width:0.0264583;filter:url(#filter20)"
       d="m 147.81423,426.62909 c 1.62575,-2.91024 1.62575,-2.91024 1.62575,-2.91024 -9.28858,-16.81985 -18.57715,-33.6397 -16.06659,-43.43039 2.51057,-9.79068 16.81972,-12.5521 31.00376,-11.92445 14.18405,0.62764 28.24215,4.64425 36.15001,-2.7617 7.90786,-7.40595 9.66512,-26.23376 18.70282,-36.14996 9.0377,-9.91619 25.35514,-10.92034 36.77764,-3.51443 11.42251,7.40592 17.94948,23.22129 27.3637,25.85713 9.41422,2.63584 21.71506,-7.90773 34.26732,-12.80306 12.55226,-4.89532 25.35517,-4.14221 28.86971,4.26788 3.51454,8.41009 -2.25932,24.47649 3.38931,28.86966 5.64863,4.39317 22.71917,-2.88692 32.13328,1.63201 9.41412,4.51893 11.17139,20.83638 6.94727,31.14079 -4.22412,10.30441 -14.42904,14.59521 -21.04973,21.78775 -6.62068,7.19254 -9.65632,17.28593 -18.2533,22.76205 -8.59698,5.47611 -22.75428,6.33427 -35.82038,3.74801 -13.06609,-2.58627 -25.03944,-8.61665 -36.05626,-7.60363 -11.01682,1.01302 -21.07576,9.06931 -33.81783,11.61466 -12.74207,2.54536 -28.1657,-0.42054 -42.32342,0.60691 -14.15771,1.02744 -27.04777,6.04809 -37.16546,3.94067 -10.11769,-2.10742 -17.46194,-11.34284 -24.80633,-20.57845 3.25149,-5.82048 6.50299,-11.64097 8.12873,-14.55121 z"
       id="path13"
       inkscape:path-effect="#path-effect13"
       inkscape:original-d="m 149.43998,423.71885 v 0 c 0,0 -18.57715,-33.6397 -27.86573,-50.45955 14.30971,-2.76153 28.61886,-5.52294 42.92828,-8.28441 14.05867,4.01676 28.11677,8.03336 42.17516,12.05005 1.75733,-18.82858 3.5146,-37.65639 5.27189,-56.48459 16.3181,-1.00419 32.63554,-2.00834 48.95331,-3.01251 6.52723,15.816 13.05421,31.63137 19.58132,47.44705 12.30133,-10.544 24.60217,-21.08758 36.90326,-31.63136 12.80343,0.75314 25.60634,1.50625 38.40951,2.25938 -5.77409,16.06705 -11.54795,32.13345 -17.32193,48.20017 17.07124,-7.28038 34.14178,-14.56047 51.21267,-21.8407 1.75734,16.31809 3.51462,32.63554 5.27191,48.9533 -10.20554,4.29106 -20.41046,8.58186 -30.61601,12.87292 -3.03582,10.09402 -6.07146,20.18741 -9.10728,30.28143 -14.15814,0.85821 -28.31544,1.71637 -42.47357,2.57458 -11.97406,-6.03074 -23.94741,-12.06112 -35.92148,-18.09186 -10.05957,8.05678 -20.11851,16.11307 -30.17807,24.16985 -15.42458,-2.96607 -30.84821,-5.93197 -46.27279,-8.89804 -12.89085,5.02096 -25.78091,10.04161 -38.67175,15.06257 -7.34454,-9.2358 -22.03318,-27.70683 -22.03318,-27.70683 0,0 6.50299,-11.64097 9.75448,-17.46145 z"
       transform="matrix(0.70495808,0,0,0.70495808,203.40982,154.98485)"
       sodipodi:nodetypes="sccccccccccccccccccccs" />
    <path
       style="opacity:0.479296;mix-blend-mode:normal;fill:#b8ebf9;fill-opacity:1;stroke-width:0.0264583;filter:url(#filter13-6)"
       d="m 151.19728,424.84854 c -1.7573,-1.12969 -1.7573,-1.12969 -1.7573,-1.12969 -9.28858,-16.81985 -18.57715,-33.6397 -16.06659,-43.43039 2.51057,-9.79068 16.81972,-12.5521 31.00376,-11.92445 14.18405,0.62764 28.24215,4.64425 36.15001,-2.7617 7.90786,-7.40595 9.66512,-26.23376 18.70282,-36.14996 9.0377,-9.91619 25.35514,-10.92034 36.77764,-3.51443 11.42251,7.40592 17.94948,23.22129 27.3637,25.85713 9.41422,2.63584 21.71506,-7.90773 34.26732,-12.80306 12.55226,-4.89532 25.35517,-4.14221 28.86971,4.26788 3.51454,8.41009 -2.25932,24.47649 3.38931,28.86966 5.64863,4.39317 22.71917,-2.88692 32.13328,1.63201 9.41412,4.51893 11.17139,20.83638 5.5228,30.2505 -5.64858,9.41411 -18.70253,11.92448 -25.85726,14.30942 -7.15474,2.38493 -8.40992,4.64428 -18.07524,6.02502 -9.66532,1.38073 -27.74003,1.88281 -39.91565,1.25518 -12.17563,-0.62762 -18.45157,-2.38489 -27.8658,-0.12544 -9.41423,2.25945 -21.96609,8.53538 -33.63968,8.40979 -11.67359,-0.12559 -22.46821,-6.65257 -32.88658,-7.40565 -10.41837,-0.75307 -20.45987,4.26768 -28.61881,5.89944 -8.15895,1.63176 -14.43489,-0.1255 -19.33025,-2.13386 -4.89536,-2.00836 -8.40989,-4.26771 -10.16719,-5.3974 z"
       id="path13-0-2"
       inkscape:path-effect="#path-effect13-9-8"
       inkscape:original-d="m 149.43998,423.71885 c 0,0 0,0 0,0 0,0 -18.57715,-33.6397 -27.86573,-50.45955 14.30971,-2.76153 28.61886,-5.52294 42.92828,-8.28441 14.05867,4.01676 28.11677,8.03336 42.17516,12.05005 1.75733,-18.82858 3.5146,-37.65639 5.27189,-56.48459 16.3181,-1.00419 32.63554,-2.00834 48.95331,-3.01251 6.52723,15.816 13.05421,31.63137 19.58132,47.44705 12.30133,-10.544 24.60217,-21.08758 36.90326,-31.63136 12.80343,0.75314 25.60634,1.50625 38.40951,2.25938 -5.77409,16.06705 -11.54795,32.13345 -17.32193,48.20017 17.07124,-7.28038 34.14178,-14.56047 51.21267,-21.8407 1.75734,16.31809 3.51462,32.63554 5.27191,48.9533 -13.05447,2.51048 -26.10842,5.02085 -39.16265,7.53127 -1.25523,2.25944 -2.51042,4.51879 -3.76563,6.77817 -18.07543,0.50208 -36.15014,1.00415 -54.2252,1.50625 -6.27619,-1.75733 -12.55213,-3.51459 -18.8282,-5.2719 -12.55238,6.27621 -25.10425,12.55212 -37.65638,18.8282 -10.79505,-6.52725 -21.58967,-13.05423 -32.3845,-19.58134 -10.0419,5.02097 -20.08341,10.04171 -30.12511,15.06257 -6.27619,-1.75733 -12.55213,-3.51459 -18.82819,-5.2719 -3.51467,-2.25941 -7.02919,-4.51877 -10.54379,-6.77815 z"
       transform="matrix(0.20646748,0,0,0.27037996,277.49496,132.30182)" />
    <path
       style="opacity:0.479296;mix-blend-mode:normal;fill:#b8ebf9;fill-opacity:1;stroke-width:0.0264583;filter:url(#filter13-6-4)"
       d="m 151.19728,424.84854 c -1.7573,-1.12969 -1.7573,-1.12969 -1.7573,-1.12969 -9.28858,-16.81985 -18.57715,-33.6397 -16.06659,-43.43039 2.51057,-9.79068 16.81972,-12.5521 31.00376,-11.92445 14.18405,0.62764 28.24215,4.64425 36.15001,-2.7617 7.90786,-7.40595 9.66512,-26.23376 18.70282,-36.14996 9.0377,-9.91619 25.35514,-10.92034 36.77764,-3.51443 11.42251,7.40592 17.94948,23.22129 27.3637,25.85713 9.41422,2.63584 21.71506,-7.90773 34.26732,-12.80306 12.55226,-4.89532 25.35517,-4.14221 28.86971,4.26788 3.51454,8.41009 -2.25932,24.47649 3.38931,28.86966 5.64863,4.39317 22.71917,-2.88692 32.13328,1.63201 9.41412,4.51893 11.17139,20.83638 5.5228,30.2505 -5.64858,9.41411 -18.70253,11.92448 -25.85726,14.30942 -7.15474,2.38493 -8.40992,4.64428 -18.07524,6.02502 -9.66532,1.38073 -27.74003,1.88281 -39.91565,1.25518 -12.17563,-0.62762 -18.45157,-2.38489 -27.8658,-0.12544 -9.41423,2.25945 -21.96609,8.53538 -33.63968,8.40979 -11.67359,-0.12559 -22.46821,-6.65257 -32.88658,-7.40565 -10.41837,-0.75307 -20.45987,4.26768 -28.61881,5.89944 -8.15895,1.63176 -14.43489,-0.1255 -19.33025,-2.13386 -4.89536,-2.00836 -8.40989,-4.26771 -10.16719,-5.3974 z"
       id="path13-0-2-7"
       inkscape:path-effect="#path-effect13-9-8-2"
       inkscape:original-d="m 149.43998,423.71885 c 0,0 0,0 0,0 0,0 -18.57715,-33.6397 -27.86573,-50.45955 14.30971,-2.76153 28.61886,-5.52294 42.92828,-8.28441 14.05867,4.01676 28.11677,8.03336 42.17516,12.05005 1.75733,-18.82858 3.5146,-37.65639 5.27189,-56.48459 16.3181,-1.00419 32.63554,-2.00834 48.95331,-3.01251 6.52723,15.816 13.05421,31.63137 19.58132,47.44705 12.30133,-10.544 24.60217,-21.08758 36.90326,-31.63136 12.80343,0.75314 25.60634,1.50625 38.40951,2.25938 -5.77409,16.06705 -11.54795,32.13345 -17.32193,48.20017 17.07124,-7.28038 34.14178,-14.56047 51.21267,-21.8407 1.75734,16.31809 3.51462,32.63554 5.27191,48.9533 -13.05447,2.51048 -26.10842,5.02085 -39.16265,7.53127 -1.25523,2.25944 -2.51042,4.51879 -3.76563,6.77817 -18.07543,0.50208 -36.15014,1.00415 -54.2252,1.50625 -6.27619,-1.75733 -12.55213,-3.51459 -18.8282,-5.2719 -12.55238,6.27621 -25.10425,12.55212 -37.65638,18.8282 -10.79505,-6.52725 -21.58967,-13.05423 -32.3845,-19.58134 -10.0419,5.02097 -20.08341,10.04171 -30.12511,15.06257 -6.27619,-1.75733 -12.55213,-3.51459 -18.82819,-5.2719 -3.51467,-2.25941 -7.02919,-4.51877 -10.54379,-6.77815 z"
       transform="matrix(0.11099564,0,0,0.14535459,241.59894,123.63389)" />
    <path
       style="opacity:0.479296;mix-blend-mode:normal;fill:#b8ebf9;fill-opacity:1;stroke-width:0.0264583;filter:url(#filter13-6-26)"
       d="m 151.19728,424.84854 c -1.7573,-1.12969 -1.7573,-1.12969 -1.7573,-1.12969 -9.28858,-16.81985 -18.57715,-33.6397 -16.06659,-43.43039 2.51057,-9.79068 16.81972,-12.5521 31.00376,-11.92445 14.18405,0.62764 28.24215,4.64425 36.15001,-2.7617 7.90786,-7.40595 9.66512,-26.23376 18.70282,-36.14996 9.0377,-9.91619 25.35514,-10.92034 36.77764,-3.51443 11.42251,7.40592 17.94948,23.22129 27.3637,25.85713 9.41422,2.63584 21.71506,-7.90773 34.26732,-12.80306 12.55226,-4.89532 25.35517,-4.14221 28.86971,4.26788 3.51454,8.41009 -2.25932,24.47649 3.38931,28.86966 5.64863,4.39317 22.71917,-2.88692 32.13328,1.63201 9.41412,4.51893 11.17139,20.83638 5.5228,30.2505 -5.64858,9.41411 -18.70253,11.92448 -25.85726,14.30942 -7.15474,2.38493 -8.40992,4.64428 -18.07524,6.02502 -9.66532,1.38073 -27.74003,1.88281 -39.91565,1.25518 -12.17563,-0.62762 -18.45157,-2.38489 -27.8658,-0.12544 -9.41423,2.25945 -21.96609,8.53538 -33.63968,8.40979 -11.67359,-0.12559 -22.46821,-6.65257 -32.88658,-7.40565 -10.41837,-0.75307 -20.45987,4.26768 -28.61881,5.89944 -8.15895,1.63176 -14.43489,-0.1255 -19.33025,-2.13386 -4.89536,-2.00836 -8.40989,-4.26771 -10.16719,-5.3974 z"
       id="path13-0-2-0"
       inkscape:path-effect="#path-effect13-9-8-4"
       inkscape:original-d="m 149.43998,423.71885 c 0,0 0,0 0,0 0,0 -18.57715,-33.6397 -27.86573,-50.45955 14.30971,-2.76153 28.61886,-5.52294 42.92828,-8.28441 14.05867,4.01676 28.11677,8.03336 42.17516,12.05005 1.75733,-18.82858 3.5146,-37.65639 5.27189,-56.48459 16.3181,-1.00419 32.63554,-2.00834 48.95331,-3.01251 6.52723,15.816 13.05421,31.63137 19.58132,47.44705 12.30133,-10.544 24.60217,-21.08758 36.90326,-31.63136 12.80343,0.75314 25.60634,1.50625 38.40951,2.25938 -5.77409,16.06705 -11.54795,32.13345 -17.32193,48.20017 17.07124,-7.28038 34.14178,-14.56047 51.21267,-21.8407 1.75734,16.31809 3.51462,32.63554 5.27191,48.9533 -13.05447,2.51048 -26.10842,5.02085 -39.16265,7.53127 -1.25523,2.25944 -2.51042,4.51879 -3.76563,6.77817 -18.07543,0.50208 -36.15014,1.00415 -54.2252,1.50625 -6.27619,-1.75733 -12.55213,-3.51459 -18.8282,-5.2719 -12.55238,6.27621 -25.10425,12.55212 -37.65638,18.8282 -10.79505,-6.52725 -21.58967,-13.05423 -32.3845,-19.58134 -10.0419,5.02097 -20.08341,10.04171 -30.12511,15.06257 -6.27619,-1.75733 -12.55213,-3.51459 -18.82819,-5.2719 -3.51467,-2.25941 -7.02919,-4.51877 -10.54379,-6.77815 z"
       transform="matrix(0.04567616,-0.12094473,0.15838345,0.05981532,144.06376,116.07696)" />
    <path
       style="opacity:0.479296;mix-blend-mode:normal;fill:#b8ebf9;fill-opacity:1;stroke-width:0.0264583;filter:url(#filter13-6-3)"
       d="m 151.19728,424.84854 c -1.7573,-1.12969 -1.7573,-1.12969 -1.7573,-1.12969 -9.28858,-16.81985 -18.57715,-33.6397 -16.06659,-43.43039 2.51057,-9.79068 16.81972,-12.5521 31.00376,-11.92445 14.18405,0.62764 28.24215,4.64425 36.15001,-2.7617 7.90786,-7.40595 9.66512,-26.23376 18.70282,-36.14996 9.0377,-9.91619 25.35514,-10.92034 36.77764,-3.51443 11.42251,7.40592 17.94948,23.22129 27.3637,25.85713 9.41422,2.63584 21.71506,-7.90773 34.26732,-12.80306 12.55226,-4.89532 25.35517,-4.14221 28.86971,4.26788 3.51454,8.41009 -2.25932,24.47649 3.38931,28.86966 5.64863,4.39317 22.71917,-2.88692 32.13328,1.63201 9.41412,4.51893 11.17139,20.83638 5.5228,30.2505 -5.64858,9.41411 -18.70253,11.92448 -25.85726,14.30942 -7.15474,2.38493 -8.40992,4.64428 -18.07524,6.02502 -9.66532,1.38073 -27.74003,1.88281 -39.91565,1.25518 -12.17563,-0.62762 -18.45157,-2.38489 -27.8658,-0.12544 -9.41423,2.25945 -21.96609,8.53538 -33.63968,8.40979 -11.67359,-0.12559 -22.46821,-6.65257 -32.88658,-7.40565 -10.41837,-0.75307 -20.45987,4.26768 -28.61881,5.89944 -8.15895,1.63176 -14.43489,-0.1255 -19.33025,-2.13386 -4.89536,-2.00836 -8.40989,-4.26771 -10.16719,-5.3974 z"
       id="path13-0-2-8"
       inkscape:path-effect="#path-effect13-9-8-8"
       inkscape:original-d="m 149.43998,423.71885 c 0,0 0,0 0,0 0,0 -18.57715,-33.6397 -27.86573,-50.45955 14.30971,-2.76153 28.61886,-5.52294 42.92828,-8.28441 14.05867,4.01676 28.11677,8.03336 42.17516,12.05005 1.75733,-18.82858 3.5146,-37.65639 5.27189,-56.48459 16.3181,-1.00419 32.63554,-2.00834 48.95331,-3.01251 6.52723,15.816 13.05421,31.63137 19.58132,47.44705 12.30133,-10.544 24.60217,-21.08758 36.90326,-31.63136 12.80343,0.75314 25.60634,1.50625 38.40951,2.25938 -5.77409,16.06705 -11.54795,32.13345 -17.32193,48.20017 17.07124,-7.28038 34.14178,-14.56047 51.21267,-21.8407 1.75734,16.31809 3.51462,32.63554 5.27191,48.9533 -13.05447,2.51048 -26.10842,5.02085 -39.16265,7.53127 -1.25523,2.25944 -2.51042,4.51879 -3.76563,6.77817 -18.07543,0.50208 -36.15014,1.00415 -54.2252,1.50625 -6.27619,-1.75733 -12.55213,-3.51459 -18.8282,-5.2719 -12.55238,6.27621 -25.10425,12.55212 -37.65638,18.8282 -10.79505,-6.52725 -21.58967,-13.05423 -32.3845,-19.58134 -10.0419,5.02097 -20.08341,10.04171 -30.12511,15.06257 -6.27619,-1.75733 -12.55213,-3.51459 -18.82819,-5.2719 -3.51467,-2.25941 -7.02919,-4.51877 -10.54379,-6.77815 z"
       transform="matrix(0.20646748,0,0,0.27037996,289.64847,288.53937)" />
    <path
       style="opacity:0.479296;mix-blend-mode:normal;fill:#b8ebf9;fill-opacity:1;stroke-width:0.0264583;filter:url(#filter13-6-1)"
       d="m 151.19728,424.84854 c -1.7573,-1.12969 -1.7573,-1.12969 -1.7573,-1.12969 -9.28858,-16.81985 -18.57715,-33.6397 -16.06659,-43.43039 2.51057,-9.79068 16.81972,-12.5521 31.00376,-11.92445 14.18405,0.62764 28.24215,4.64425 36.15001,-2.7617 7.90786,-7.40595 9.66512,-26.23376 18.70282,-36.14996 9.0377,-9.91619 25.35514,-10.92034 36.77764,-3.51443 11.42251,7.40592 17.94948,23.22129 27.3637,25.85713 9.41422,2.63584 21.71506,-7.90773 34.26732,-12.80306 12.55226,-4.89532 25.35517,-4.14221 28.86971,4.26788 3.51454,8.41009 -2.25932,24.47649 3.38931,28.86966 5.64863,4.39317 22.71917,-2.88692 32.13328,1.63201 9.41412,4.51893 11.17139,20.83638 5.5228,30.2505 -5.64858,9.41411 -18.70253,11.92448 -25.85726,14.30942 -7.15474,2.38493 -8.40992,4.64428 -18.07524,6.02502 -9.66532,1.38073 -27.74003,1.88281 -39.91565,1.25518 -12.17563,-0.62762 -18.45157,-2.38489 -27.8658,-0.12544 -9.41423,2.25945 -21.96609,8.53538 -33.63968,8.40979 -11.67359,-0.12559 -22.46821,-6.65257 -32.88658,-7.40565 -10.41837,-0.75307 -20.45987,4.26768 -28.61881,5.89944 -8.15895,1.63176 -14.43489,-0.1255 -19.33025,-2.13386 -4.89536,-2.00836 -8.40989,-4.26771 -10.16719,-5.3974 z"
       id="path13-0-2-6"
       inkscape:path-effect="#path-effect13-9-8-9"
       inkscape:original-d="m 149.43998,423.71885 c 0,0 0,0 0,0 0,0 -18.57715,-33.6397 -27.86573,-50.45955 14.30971,-2.76153 28.61886,-5.52294 42.92828,-8.28441 14.05867,4.01676 28.11677,8.03336 42.17516,12.05005 1.75733,-18.82858 3.5146,-37.65639 5.27189,-56.48459 16.3181,-1.00419 32.63554,-2.00834 48.95331,-3.01251 6.52723,15.816 13.05421,31.63137 19.58132,47.44705 12.30133,-10.544 24.60217,-21.08758 36.90326,-31.63136 12.80343,0.75314 25.60634,1.50625 38.40951,2.25938 -5.77409,16.06705 -11.54795,32.13345 -17.32193,48.20017 17.07124,-7.28038 34.14178,-14.56047 51.21267,-21.8407 1.75734,16.31809 3.51462,32.63554 5.27191,48.9533 -13.05447,2.51048 -26.10842,5.02085 -39.16265,7.53127 -1.25523,2.25944 -2.51042,4.51879 -3.76563,6.77817 -18.07543,0.50208 -36.15014,1.00415 -54.2252,1.50625 -6.27619,-1.75733 -12.55213,-3.51459 -18.8282,-5.2719 -12.55238,6.27621 -25.10425,12.55212 -37.65638,18.8282 -10.79505,-6.52725 -21.58967,-13.05423 -32.3845,-19.58134 -10.0419,5.02097 -20.08341,10.04171 -30.12511,15.06257 -6.27619,-1.75733 -12.55213,-3.51459 -18.82819,-5.2719 -3.51467,-2.25941 -7.02919,-4.51877 -10.54379,-6.77815 z"
       transform="matrix(0.11566151,0,0,0.18971843,434.73911,132.81819)" />
    <path
       style="mix-blend-mode:normal;fill:#6ed6f3;fill-opacity:1;stroke-width:0.0264583;filter:url(#filter13-6-8)"
       d="m 151.19728,424.84854 c -1.7573,-1.12969 -1.7573,-1.12969 -1.7573,-1.12969 -9.28858,-16.81985 -18.57715,-33.6397 -16.06659,-43.43039 2.51057,-9.79068 16.81972,-12.5521 31.00376,-11.92445 14.18405,0.62764 28.24215,4.64425 36.15001,-2.7617 7.90786,-7.40595 9.66512,-26.23376 18.70282,-36.14996 9.0377,-9.91619 25.35514,-10.92034 36.77764,-3.51443 11.42251,7.40592 17.94948,23.22129 27.3637,25.85713 9.41422,2.63584 21.71506,-7.90773 34.26732,-12.80306 12.55226,-4.89532 25.35517,-4.14221 28.86971,4.26788 3.51454,8.41009 -2.25932,24.47649 3.38931,28.86966 5.64863,4.39317 22.71917,-2.88692 32.13328,1.63201 9.41412,4.51893 11.17139,20.83638 5.5228,30.2505 -5.64858,9.41411 -18.70253,11.92448 -25.85726,14.30942 -7.15474,2.38493 -8.40992,4.64428 -18.07524,6.02502 -9.66532,1.38073 -27.74003,1.88281 -39.91565,1.25518 -12.17563,-0.62762 -18.45157,-2.38489 -27.8658,-0.12544 -9.41423,2.25945 -21.96609,8.53538 -33.63968,8.40979 -11.67359,-0.12559 -22.46821,-6.65257 -32.88658,-7.40565 -10.41837,-0.75307 -20.45987,4.26768 -28.61881,5.89944 -8.15895,1.63176 -14.43489,-0.1255 -19.33025,-2.13386 -4.89536,-2.00836 -8.40989,-4.26771 -10.16719,-5.3974 z"
       id="path13-0-2-1"
       inkscape:path-effect="#path-effect13-9-8-7"
       inkscape:original-d="m 149.43998,423.71885 c 0,0 0,0 0,0 0,0 -18.57715,-33.6397 -27.86573,-50.45955 14.30971,-2.76153 28.61886,-5.52294 42.92828,-8.28441 14.05867,4.01676 28.11677,8.03336 42.17516,12.05005 1.75733,-18.82858 3.5146,-37.65639 5.27189,-56.48459 16.3181,-1.00419 32.63554,-2.00834 48.95331,-3.01251 6.52723,15.816 13.05421,31.63137 19.58132,47.44705 12.30133,-10.544 24.60217,-21.08758 36.90326,-31.63136 12.80343,0.75314 25.60634,1.50625 38.40951,2.25938 -5.77409,16.06705 -11.54795,32.13345 -17.32193,48.20017 17.07124,-7.28038 34.14178,-14.56047 51.21267,-21.8407 1.75734,16.31809 3.51462,32.63554 5.27191,48.9533 -13.05447,2.51048 -26.10842,5.02085 -39.16265,7.53127 -1.25523,2.25944 -2.51042,4.51879 -3.76563,6.77817 -18.07543,0.50208 -36.15014,1.00415 -54.2252,1.50625 -6.27619,-1.75733 -12.55213,-3.51459 -18.8282,-5.2719 -12.55238,6.27621 -25.10425,12.55212 -37.65638,18.8282 -10.79505,-6.52725 -21.58967,-13.05423 -32.3845,-19.58134 -10.0419,5.02097 -20.08341,10.04171 -30.12511,15.06257 -6.27619,-1.75733 -12.55213,-3.51459 -18.82819,-5.2719 -3.51467,-2.25941 -7.02919,-4.51877 -10.54379,-6.77815 z"
       transform="matrix(-0.34912497,0,0,0.45719741,239.4306,28.168786)" />
    <path
       style="fill:#b8ebf9;fill-opacity:1;stroke-width:0.0264583;filter:url(#filter15)"
       d="m 240.99403,383.43183 c -1.88611,-0.48162 -3.87008,-0.19689 -5.80673,0 -8.14714,0.82826 -16.51288,0.0143 -24.18551,-2.84805 -7.67263,-2.8623 -14.62411,-7.82155 -19.43506,-14.44852 -4.81094,-6.62698 -7.39096,-14.94012 -6.69353,-23.09951 0.69743,-8.15938 4.78171,-16.06658 11.32612,-20.98925 3.94865,-2.97015 8.64564,-4.81285 13.43485,-6.02819 4.78922,-1.21534 9.70564,-1.83376 14.59069,-2.57531 4.88506,-0.74155 9.78148,-1.61666 14.42075,-3.31692 4.63926,-1.70026 9.04346,-4.27478 12.30279,-7.98833 2.83707,-3.23245 4.71979,-7.23553 5.7653,-11.40741 1.0455,-4.17188 1.27834,-8.51591 1.06326,-12.81142 -0.43016,-8.59102 -2.62149,-16.99734 -3.51043,-25.55306 -1.22004,-11.74241 0.083,-23.84969 4.64084,-34.73999 4.55787,-10.8903 12.47874,-20.49639 22.77195,-26.27761 10.29322,-5.78121 22.9713,-7.5153 34.20077,-3.87229 5.61474,1.82151 10.81658,4.94491 14.98186,9.12746 4.16527,4.18255 7.27829,9.42465 8.84633,15.11538 2.42373,8.7962 1.12719,18.1194 1.16153,27.24335 0.0172,4.56198 0.3805,9.16363 1.69536,13.53205 1.31487,4.36841 3.63501,8.5147 7.09748,11.48509 3.85161,3.30423 8.885,4.96926 13.91801,5.61864 5.033,0.64938 10.13272,0.35807 15.20436,0.1813 5.07165,-0.17676 10.20332,-0.23239 15.15618,0.87304 4.95286,1.10542 9.77135,3.48052 12.95912,7.42905 2.08841,2.58681 3.40058,5.76264 3.93279,9.04437 0.53221,3.28174 0.30027,6.66581 -0.49132,9.89481 -1.58316,6.458 -5.32903,12.18454 -9.56684,17.30833 -4.23781,5.12379 -9.02214,9.78111 -13.16529,14.98174 -4.14316,5.20062 -7.6877,11.08659 -8.91342,17.62187 -1.00797,5.37425 -0.40043,10.92842 0.70436,16.28361 1.10478,5.35519 2.70137,10.6031 3.69576,15.97988 0.99439,5.37678 1.37174,10.97402 0.0342,16.27587 -0.66877,2.65093 -1.76777,5.20527 -3.34661,7.43728 -1.57884,2.23202 -3.64529,4.13587 -6.06491,5.40869 -3.19181,1.67902 -6.92565,2.21319 -10.50554,1.77592 -3.57988,-0.43726 -7.00884,-1.81413 -10.06136,-3.73479 -6.10503,-3.84132 -10.62078,-9.70558 -14.84825,-15.54986 -4.22747,-5.84428 -8.39153,-11.89049 -14.06936,-16.33903 -2.83891,-2.22426 -6.04572,-4.02141 -9.51571,-5.00424 -3.46999,-0.98283 -7.2127,-1.1268 -10.68042,-0.13598 -2.85001,0.81432 -5.45649,2.37305 -7.68727,4.32479 -2.23079,1.95174 -4.09866,4.29078 -5.71801,6.77339 -3.2387,4.96524 -5.50041,10.49984 -8.49299,15.61719 -2.99257,5.11734 -6.92693,9.97507 -12.32831,12.41799 -2.70068,1.22146 -5.72771,1.78933 -8.66546,1.39529 -2.93776,-0.39405 -5.77067,-1.78714 -7.70938,-4.02926 -1.45474,-1.68241 -2.3678,-3.76925 -3.01738,-5.89641 -0.64957,-2.12717 -1.05549,-4.32044 -1.62474,-6.47049 -0.56926,-2.15006 -1.31635,-4.28537 -2.57273,-6.12066 -1.25638,-1.83529 -3.07313,-3.35952 -5.22812,-3.9098 z"
       id="path11-4"
       inkscape:path-effect="#path-effect11-3"
       inkscape:original-d="m 240.99403,383.43183 c -4.14766,-7.46578 -3.59464,0 -5.80673,0 -2.21208,0 -25.99198,-41.47657 -38.98798,-61.38533 -12.99599,-19.90875 36.7759,-12.16646 54.74908,-19.90875 17.97319,-7.7423 1.38255,-33.73428 3.31813,-49.77189 1.93557,-16.03761 57.23767,-27.37454 85.44175,-40.64705 28.20408,-13.2725 6.08323,35.39335 9.95437,52.26049 3.87115,16.86714 38.71147,8.84833 57.23767,14.10203 18.52621,5.2537 -19.07921,46.73028 -28.20408,68.85112 -9.12484,22.12084 -3.04159,40.37053 -4.97718,61.38533 -1.93556,21.01479 -46.45376,-25.71548 -69.68064,-38.98798 -23.22688,-13.2725 -33.73428,24.05641 -50.60142,36.49939 -16.86714,12.44298 -8.29532,-14.93157 -12.44297,-22.39736 z"
       transform="matrix(0.55083791,0,0,0.55083791,248.04987,109.80971)" />
    <path
       style="opacity:1;fill:url(#radialGradient18);fill-opacity:1;stroke-width:0.0264583;stroke:none;filter:url(#filter22)"
       d="m 240.99403,383.43183 c -1.88611,-0.48162 -3.87008,-0.19689 -5.80673,0 -8.14714,0.82826 -16.51288,0.0143 -24.18551,-2.84805 -7.67263,-2.8623 -14.62411,-7.82155 -19.43506,-14.44852 -4.81094,-6.62698 -7.39096,-14.94012 -6.69353,-23.09951 0.69743,-8.15938 4.78171,-16.06658 11.32612,-20.98925 3.94865,-2.97015 8.64564,-4.81285 13.43485,-6.02819 4.78922,-1.21534 9.70564,-1.83376 14.59069,-2.57531 4.88506,-0.74155 9.78148,-1.61666 14.42075,-3.31692 4.63926,-1.70026 9.04346,-4.27478 12.30279,-7.98833 2.83707,-3.23245 4.71979,-7.23553 5.7653,-11.40741 1.0455,-4.17188 1.27834,-8.51591 1.06326,-12.81142 -0.43016,-8.59102 -2.62149,-16.99734 -3.51043,-25.55306 -1.22004,-11.74241 0.083,-23.84969 4.64084,-34.73999 4.55787,-10.8903 12.47874,-20.49639 22.77195,-26.27761 10.29322,-5.78121 22.9713,-7.5153 34.20077,-3.87229 5.61474,1.82151 10.81658,4.94491 14.98186,9.12746 4.16527,4.18255 7.27829,9.42465 8.84633,15.11538 2.42373,8.7962 1.12719,18.1194 1.16153,27.24335 0.0172,4.56198 0.3805,9.16363 1.69536,13.53205 1.31487,4.36841 3.63501,8.5147 7.09748,11.48509 3.85161,3.30423 8.885,4.96926 13.91801,5.61864 5.033,0.64938 10.13272,0.35807 15.20436,0.1813 5.07165,-0.17676 10.20332,-0.23239 15.15618,0.87304 4.95286,1.10542 9.77135,3.48052 12.95912,7.42905 2.08841,2.58681 3.40058,5.76264 3.93279,9.04437 0.53221,3.28174 0.30027,6.66581 -0.49132,9.89481 -1.58316,6.458 -5.32903,12.18454 -9.56684,17.30833 -4.23781,5.12379 -9.02214,9.78111 -13.16529,14.98174 -4.14316,5.20062 -7.6877,11.08659 -8.91342,17.62187 -1.00797,5.37425 -0.40043,10.92842 0.70436,16.28361 1.10478,5.35519 2.70137,10.6031 3.69576,15.97988 0.99439,5.37678 1.37174,10.97402 0.0342,16.27587 -0.66877,2.65093 -1.76777,5.20527 -3.34661,7.43728 -1.57884,2.23202 -3.64529,4.13587 -6.06491,5.40869 -3.19181,1.67902 -6.92565,2.21319 -10.50554,1.77592 -3.57988,-0.43726 -7.00884,-1.81413 -10.06136,-3.73479 -6.10503,-3.84132 -10.62078,-9.70558 -14.84825,-15.54986 -4.22747,-5.84428 -8.39153,-11.89049 -14.06936,-16.33903 -2.83891,-2.22426 -6.04572,-4.02141 -9.51571,-5.00424 -3.46999,-0.98283 -7.2127,-1.1268 -10.68042,-0.13598 -2.85001,0.81432 -5.45649,2.37305 -7.68727,4.32479 -2.23079,1.95174 -4.09866,4.29078 -5.71801,6.77339 -3.2387,4.96524 -5.50041,10.49984 -8.49299,15.61719 -2.99257,5.11734 -6.92693,9.97507 -12.32831,12.41799 -2.70068,1.22146 -5.72771,1.78933 -8.66546,1.39529 -2.93776,-0.39405 -5.77067,-1.78714 -7.70938,-4.02926 -1.45474,-1.68241 -2.3678,-3.76925 -3.01738,-5.89641 -0.64957,-2.12717 -1.05549,-4.32044 -1.62474,-6.47049 -0.56926,-2.15006 -1.31635,-4.28537 -2.57273,-6.12066 -1.25638,-1.83529 -3.07313,-3.35952 -5.22812,-3.9098 z"
       id="path11"
       inkscape:path-effect="#path-effect11"
       inkscape:original-d="m 240.99403,383.43183 c -4.14766,-7.46578 -3.59464,0 -5.80673,0 -2.21208,0 -25.99198,-41.47657 -38.98798,-61.38533 -12.99599,-19.90875 36.7759,-12.16646 54.74908,-19.90875 17.97319,-7.7423 1.38255,-33.73428 3.31813,-49.77189 1.93557,-16.03761 57.23767,-27.37454 85.44175,-40.64705 28.20408,-13.2725 6.08323,35.39335 9.95437,52.26049 3.87115,16.86714 38.71147,8.84833 57.23767,14.10203 18.52621,5.2537 -19.07921,46.73028 -28.20408,68.85112 -9.12484,22.12084 -3.04159,40.37053 -4.97718,61.38533 -1.93556,21.01479 -46.45376,-25.71548 -69.68064,-38.98798 -23.22688,-13.2725 -33.73428,24.05641 -50.60142,36.49939 -16.86714,12.44298 -8.29532,-14.93157 -12.44297,-22.39736 z"
       transform="matrix(0.46368191,0,0,0.46368191,275.10395,141.7324)" />
    <path
       style="mix-blend-mode:normal;fill:url(#radialGradient18-7);fill-opacity:1;stroke:none;stroke-width:0.0264583;filter:url(#filter21)"
       d="m 240.99403,383.43183 c -1.88611,-0.48162 -3.87008,-0.19689 -5.80673,0 -8.14714,0.82826 -16.51288,0.0143 -24.18551,-2.84805 -7.67263,-2.8623 -14.62411,-7.82155 -19.43506,-14.44852 -4.81094,-6.62698 -7.39096,-14.94012 -6.69353,-23.09951 0.69743,-8.15938 4.78171,-16.06658 11.32612,-20.98925 3.94865,-2.97015 8.64564,-4.81285 13.43485,-6.02819 4.78922,-1.21534 9.70564,-1.83376 14.59069,-2.57531 4.88506,-0.74155 9.78148,-1.61666 14.42075,-3.31692 4.63926,-1.70026 9.04346,-4.27478 12.30279,-7.98833 2.83707,-3.23245 4.71979,-7.23553 5.7653,-11.40741 1.0455,-4.17188 1.27834,-8.51591 1.06326,-12.81142 -0.43016,-8.59102 -2.62149,-16.99734 -3.51043,-25.55306 -1.22004,-11.74241 0.083,-23.84969 4.64084,-34.73999 4.55787,-10.8903 12.47874,-20.49639 22.77195,-26.27761 10.29322,-5.78121 22.9713,-7.5153 34.20077,-3.87229 5.61474,1.82151 10.81658,4.94491 14.98186,9.12746 4.16527,4.18255 7.27829,9.42465 8.84633,15.11538 2.42373,8.7962 1.12719,18.1194 1.16153,27.24335 0.0172,4.56198 0.3805,9.16363 1.69536,13.53205 1.31487,4.36841 3.63501,8.5147 7.09748,11.48509 3.85161,3.30423 8.885,4.96926 13.91801,5.61864 5.033,0.64938 10.13272,0.35807 15.20436,0.1813 5.07165,-0.17676 10.20332,-0.23239 15.15618,0.87304 4.95286,1.10542 9.77135,3.48052 12.95912,7.42905 2.08841,2.58681 3.40058,5.76264 3.93279,9.04437 0.53221,3.28174 0.30027,6.66581 -0.49132,9.89481 -1.58316,6.458 -5.32903,12.18454 -9.56684,17.30833 -4.23781,5.12379 -9.02214,9.78111 -13.16529,14.98174 -4.14316,5.20062 -7.6877,11.08659 -8.91342,17.62187 -1.00797,5.37425 -0.40043,10.92842 0.70436,16.28361 1.10478,5.35519 2.70137,10.6031 3.69576,15.97988 0.99439,5.37678 1.37174,10.97402 0.0342,16.27587 -0.66877,2.65093 -1.76777,5.20527 -3.34661,7.43728 -1.57884,2.23202 -3.64529,4.13587 -6.06491,5.40869 -3.19181,1.67902 -6.92565,2.21319 -10.50554,1.77592 -3.57988,-0.43726 -7.00884,-1.81413 -10.06136,-3.73479 -6.10503,-3.84132 -10.62078,-9.70558 -14.84825,-15.54986 -4.22747,-5.84428 -8.39153,-11.89049 -14.06936,-16.33903 -2.83891,-2.22426 -6.04572,-4.02141 -9.51571,-5.00424 -3.46999,-0.98283 -7.2127,-1.1268 -10.68042,-0.13598 -2.85001,0.81432 -5.45649,2.37305 -7.68727,4.32479 -2.23079,1.95174 -4.09866,4.29078 -5.71801,6.77339 -3.2387,4.96524 -5.50041,10.49984 -8.49299,15.61719 -2.99257,5.11734 -6.92693,9.97507 -12.32831,12.41799 -2.70068,1.22146 -5.72771,1.78933 -8.66546,1.39529 -2.93776,-0.39405 -5.77067,-1.78714 -7.70938,-4.02926 -1.45474,-1.68241 -2.3678,-3.76925 -3.01738,-5.89641 -0.64957,-2.12717 -1.05549,-4.32044 -1.62474,-6.47049 -0.56926,-2.15006 -1.31635,-4.28537 -2.57273,-6.12066 -1.25638,-1.83529 -3.07313,-3.35952 -5.22812,-3.9098 z"
       id="path11-2"
       inkscape:path-effect="#path-effect11-2"
       inkscape:original-d="m 240.99403,383.43183 c -4.14766,-7.46578 -3.59464,0 -5.80673,0 -2.21208,0 -25.99198,-41.47657 -38.98798,-61.38533 -12.99599,-19.90875 36.7759,-12.16646 54.74908,-19.90875 17.97319,-7.7423 1.38255,-33.73428 3.31813,-49.77189 1.93557,-16.03761 57.23767,-27.37454 85.44175,-40.64705 28.20408,-13.2725 6.08323,35.39335 9.95437,52.26049 3.87115,16.86714 38.71147,8.84833 57.23767,14.10203 18.52621,5.2537 -19.07921,46.73028 -28.20408,68.85112 -9.12484,22.12084 -3.04159,40.37053 -4.97718,61.38533 -1.93556,21.01479 -46.45376,-25.71548 -69.68064,-38.98798 -23.22688,-13.2725 -33.73428,24.05641 -50.60142,36.49939 -16.86714,12.44298 -8.29532,-14.93157 -12.44297,-22.39736 z"
       transform="matrix(0.19215744,0,0,0.19215744,275.12075,266.68269)" />
    <path
       style="opacity:0.479296;mix-blend-mode:normal;fill:#b8ebf9;fill-opacity:1;stroke-width:0.0264583;filter:url(#filter13-6-2)"
       d="m 151.19728,424.84854 c -1.7573,-1.12969 -1.7573,-1.12969 -1.7573,-1.12969 -9.28858,-16.81985 -18.57715,-33.6397 -16.06659,-43.43039 2.51057,-9.79068 16.81972,-12.5521 31.00376,-11.92445 14.18405,0.62764 28.24215,4.64425 36.15001,-2.7617 7.90786,-7.40595 9.66512,-26.23376 18.70282,-36.14996 9.0377,-9.91619 25.35514,-10.92034 36.77764,-3.51443 11.42251,7.40592 17.94948,23.22129 27.3637,25.85713 9.41422,2.63584 21.71506,-7.90773 34.26732,-12.80306 12.55226,-4.89532 25.35517,-4.14221 28.86971,4.26788 3.51454,8.41009 -2.25932,24.47649 3.38931,28.86966 5.64863,4.39317 22.71917,-2.88692 32.13328,1.63201 9.41412,4.51893 11.17139,20.83638 5.5228,30.2505 -5.64858,9.41411 -18.70253,11.92448 -25.85726,14.30942 -7.15474,2.38493 -8.40992,4.64428 -18.07524,6.02502 -9.66532,1.38073 -27.74003,1.88281 -39.91565,1.25518 -12.17563,-0.62762 -18.45157,-2.38489 -27.8658,-0.12544 -9.41423,2.25945 -21.96609,8.53538 -33.63968,8.40979 -11.67359,-0.12559 -22.46821,-6.65257 -32.88658,-7.40565 -10.41837,-0.75307 -20.45987,4.26768 -28.61881,5.89944 -8.15895,1.63176 -14.43489,-0.1255 -19.33025,-2.13386 -4.89536,-2.00836 -8.40989,-4.26771 -10.16719,-5.3974 z"
       id="path13-0-2-5"
       inkscape:path-effect="#path-effect13-9-8-6"
       inkscape:original-d="m 149.43998,423.71885 c 0,0 0,0 0,0 0,0 -18.57715,-33.6397 -27.86573,-50.45955 14.30971,-2.76153 28.61886,-5.52294 42.92828,-8.28441 14.05867,4.01676 28.11677,8.03336 42.17516,12.05005 1.75733,-18.82858 3.5146,-37.65639 5.27189,-56.48459 16.3181,-1.00419 32.63554,-2.00834 48.95331,-3.01251 6.52723,15.816 13.05421,31.63137 19.58132,47.44705 12.30133,-10.544 24.60217,-21.08758 36.90326,-31.63136 12.80343,0.75314 25.60634,1.50625 38.40951,2.25938 -5.77409,16.06705 -11.54795,32.13345 -17.32193,48.20017 17.07124,-7.28038 34.14178,-14.56047 51.21267,-21.8407 1.75734,16.31809 3.51462,32.63554 5.27191,48.9533 -13.05447,2.51048 -26.10842,5.02085 -39.16265,7.53127 -1.25523,2.25944 -2.51042,4.51879 -3.76563,6.77817 -18.07543,0.50208 -36.15014,1.00415 -54.2252,1.50625 -6.27619,-1.75733 -12.55213,-3.51459 -18.8282,-5.2719 -12.55238,6.27621 -25.10425,12.55212 -37.65638,18.8282 -10.79505,-6.52725 -21.58967,-13.05423 -32.3845,-19.58134 -10.0419,5.02097 -20.08341,10.04171 -30.12511,15.06257 -6.27619,-1.75733 -12.55213,-3.51459 -18.82819,-5.2719 -3.51467,-2.25941 -7.02919,-4.51877 -10.54379,-6.77815 z"
       transform="matrix(0.16027143,0,0,0.20988381,253.35131,286.25475)" />
  </g>
</svg>
