<?xml version="1.0" encoding="UTF-8" standalone="no"?>
<!-- Created with Inkscape (http://www.inkscape.org/) -->

<svg
   width="1500"
   height="1200"
   viewBox="0 0 396.87499 317.49999"
   version="1.1"
   id="svg1"
   inkscape:export-filename="bg-sur.png"
   inkscape:export-xdpi="96"
   inkscape:export-ydpi="96"
   inkscape:version="1.4.3 (0d15f75042, 2025-12-25)"
   sodipodi:docname="bg-sur-svg.svg"
   xmlns:inkscape="http://www.inkscape.org/namespaces/inkscape"
   xmlns:sodipodi="http://sodipodi.sourceforge.net/DTD/sodipodi-0.dtd"
   xmlns:xlink="http://www.w3.org/1999/xlink"
   xmlns="http://www.w3.org/2000/svg"
   xmlns:svg="http://www.w3.org/2000/svg">
  <sodipodi:namedview
     id="namedview1"
     pagecolor="#505050"
     bordercolor="#ffffff"
     borderopacity="1"
     inkscape:showpageshadow="0"
     inkscape:pageopacity="0"
     inkscape:pagecheckerboard="1"
     inkscape:deskcolor="#505050"
     inkscape:document-units="px"
     inkscape:zoom="0.49489585"
     inkscape:cx="618.31192"
     inkscape:cy="593.05408"
     inkscape:window-width="1712"
     inkscape:window-height="894"
     inkscape:window-x="0"
     inkscape:window-y="0"
     inkscape:window-maximized="1"
     inkscape:current-layer="layer1" />
  <defs
     id="defs1">
    <linearGradient
       id="linearGradient7"
       inkscape:collect="always">
      <stop
         style="stop-color:#4cacca;stop-opacity:1;"
         offset="0"
         id="stop8" />
      <stop
         style="stop-color:#bca7cf;stop-opacity:1;"
         offset="1"
         id="stop7" />
    </linearGradient>
    <linearGradient
       inkscape:collect="always"
       xlink:href="#linearGradient7"
       id="linearGradient8"
       x1="157.01262"
       y1="59.503624"
       x2="161.64433"
       y2="198.32544"
       gradientUnits="userSpaceOnUse" />
    <filter
       inkscape:collect="always"
       style="color-interpolation-filters:sRGB"
       id="filter8"
       x="-0.04433169"
       y="-0.26181932"
       width="1.0886634"
       height="1.5236386">
      <feGaussianBlur
         inkscape:collect="always"
         stdDeviation="7.3660028"
         id="feGaussianBlur8" />
    </filter>
  </defs>
  <g
     inkscape:label="Layer 1"
     inkscape:groupmode="layer"
     id="layer1"
     transform="translate(34.808151,-52.212223)">
    <rect
       style="opacity:1;fill:url(#linearGradient8);stroke-width:0.0333067;fill-opacity:1"
       id="rect1"
       width="396.875"
       height="317.5"
       x="-34.808151"
       y="52.212223"
       ry="0.046654433" />
    <rect
       style="opacity:1;fill:#18882d;fill-opacity:1;stroke-width:0.0223081"
       id="rect2"
       width="396.875"
       height="81.927406"
       x="-34.806034"
       y="287.78754"
       ry="0.02349869" />
    <path
       style="opacity:0.47331414;fill:#73e8dd;fill-opacity:1;stroke-width:3.12599991;stroke:#23d8de;stroke-opacity:1;stroke-dasharray:none"
       d="m -33.959609,208.34399 c 13.010981,-6.50549 7.210262,-29.59445 21.964847,-27.06669 23.224315,3.97881 18.1290796,-14.64306 28.112932,-12.64948 10.021747,2.00114 18.366653,14.22626 23.865277,19.20459 14.36526,13.00599 12.005798,8.2708 23.749647,11.40084 19.565515,5.2147 23.648831,-25.39665 38.074046,-52.83284 8.33309,-15.84921 22.30625,-27.78943 38.3425,-25.45064 11.72372,1.70985 27.93811,7.97652 35.48067,15.26813 25.18569,24.34772 1.30767,63.22018 31.65355,61.35504 15.17482,-0.93268 8.05713,-26.29002 28.42214,-19.78453 20.365,6.50549 40.00134,11.01289 59.56877,-10.17445 21.10234,-22.84933 29.98181,14.70807 44.97273,22.0621 14.9909,7.35403 12.44529,24.89057 18.66792,37.33585 6.22265,12.44529 0.85288,1.20359 0.85288,1.20359 l 2.29338,4.9204 0.003,55.31838 -2.36286,-0.0463 -394.509621,-0.0463 0.04633,-78.7628 z"
       id="path2"
       sodipodi:nodetypes="cssssssssssssccccccc" />
    <path
       style="fill:#a1efe8;fill-opacity:1;stroke-width:0.0234068;opacity:0.37854989"
       d="m -20.927553,216.31772 c 11.2345208,-5.89652 6.225806,-26.82414 18.965869,-24.53301 20.053362,3.60635 15.653817,-13.27234 24.274516,-11.46537 8.653419,1.81382 15.858955,12.89456 20.606818,17.40687 12.403892,11.78851 10.366586,7.49659 20.506983,10.33362 16.894121,4.72656 20.419927,-23.0193 32.875576,-47.88723 7.195331,-14.36558 19.260661,-25.18808 33.107391,-23.06823 10.12302,1.5498 24.12358,7.22985 30.6363,13.8389 21.74695,22.06856 1.12913,57.30221 27.33173,55.61167 13.10291,-0.84537 6.95703,-23.82904 24.5415,-17.93253 17.58445,5.89652 34.53975,9.98199 51.43552,-9.22202 18.22112,-20.71044 25.88822,13.33125 38.83236,19.99689 12.94411,6.66562 10.74606,22.56058 16.11908,33.84087 5.37304,11.28031 0.73644,1.09093 0.73644,1.09093 l 1.98024,4.45981 0.002,50.14008 -2.04024,-0.042 -340.645057,-0.042 0.04001,-71.3899 z"
       id="path2-3"
       sodipodi:nodetypes="cssssssssssssccccccc" />
    <path
       style="fill:#a9d6d2;fill-opacity:1;stroke-width:3.02399991;stroke:#8781ec;stroke-opacity:1;stroke-dasharray:none;opacity:0.3587034"
       d="m 20.801399,210.97524 c 11.234523,-6.33262 6.225803,-28.80803 18.965873,-26.34745 20.05336,3.87307 15.65381,-14.25395 24.27451,-12.31334 8.65342,1.94797 15.85896,13.84823 20.60682,18.69427 12.40389,12.66037 10.36659,8.05103 20.506978,11.09788 16.89412,5.07613 20.41993,-24.72178 32.87558,-51.42892 7.19533,-15.42805 19.26066,-27.05097 33.10739,-24.77434 10.12302,1.66442 24.12358,7.76456 30.6363,14.86241 21.74695,23.70073 1.12913,61.54023 27.33173,59.72466 13.10291,-0.90789 6.95703,-25.59141 24.5415,-19.2588 17.58445,6.33262 34.53975,10.72025 51.43552,-9.90407 18.22112,-22.24217 25.88822,14.31721 38.83236,21.47584 12.94411,7.1586 10.74606,24.22914 16.11908,36.34371 5.37304,12.11459 0.73644,1.17161 0.73644,1.17161 l 1.98024,4.78966 0.002,53.84839 -2.04024,-0.0451 -340.645055,-0.0451 0.04001,-76.66983 z"
       id="path2-3-1"
       sodipodi:nodetypes="cssssssssssssccccccc" />
    <path
       style="fill:#14d5ff;fill-opacity:1;stroke-width:2.32199993;opacity:0.45476974;stroke:#2c69d2;stroke-opacity:1;stroke-dasharray:none"
       d="m -34.721672,206.93026 c 9.217148,-6.64045 5.10784,-30.20842 15.560185,-27.62823 16.4523916,4.06135 12.8428658,-14.94685 19.91555267,-12.9119 7.09953143,2.04266 13.01117733,14.52141 16.90646733,19.60302 10.176532,13.2758 8.505069,8.4424 16.824555,11.63736 13.860454,5.32289 16.753137,-25.92354 26.972134,-53.92894 5.90327,-16.17803 15.802037,-28.36595 27.162319,-25.97865 8.305237,1.74533 19.791729,8.142 25.134959,15.58489 17.84187,24.85285 0.92638,64.53177 22.42379,62.62794 10.75003,-0.95202 5.70777,-26.83544 20.1346,-20.19499 14.42683,6.64046 28.33748,11.24137 42.19928,-10.38552 14.94917,-23.32339 21.23949,15.01319 31.85926,22.51981 10.61975,7.50659 8.8164,25.40695 13.22459,38.11042 4.40821,12.70349 0.6042,1.22856 0.6042,1.22856 l 1.62465,5.02249 0.002,56.46603 -1.67388,-0.0473 -279.475656,-0.0473 0.03282,-80.39684 z"
       id="path2-3-1-3"
       sodipodi:nodetypes="cssssssssssssccccccc" />
    <path
       style="opacity:0.508498;mix-blend-mode:normal;fill:#0f581e;fill-opacity:1;stroke-width:0.0264583;filter:url(#filter8)"
       d="m 6.2156896,340.70247 c -0.8822319,0.22056 -2.8672578,-0.22058 -2.6466985,0.66167 0.2205567,0.88223 3.4910421,-0.99941 2.6466985,-0.66167 -3.5133914,1.40533 -7.08294065,2.5685 -10.5867966,3.97005 -2.8282,1.13128 0.2230967,0.0718 -2.6467011,1.98501 -0.8856366,0.59041 -2.3454991,0.84193 -3.3083729,1.32336 -1.537096,0.76854 -2.447395,2.54704 -3.970049,3.30835 -0.197274,0.0986 -0.505717,-0.15594 -0.661675,0 -0.155958,0.15597 0.09864,0.46443 0,0.6617 -0.788757,1.5775 -3.121763,3.6816 -1.985025,5.95506 1.734342,3.46868 6.748249,3.61706 9.9251219,3.97004 2.2622854,0.25138 10.6304502,0.30904 12.5718224,-0.66167 0.1972734,-0.0986 -0.155956,-0.5057 0,-0.66167 0.1559587,-0.15594 0.464402,0.0986 0.6616753,0 0.5579745,-0.27897 0.7653761,-1.04436 1.3233506,-1.32334 1.276223,-0.63812 2.6804008,-1.12527 3.9700488,-1.98503 2.081986,-1.38798 3.49553,-3.64789 5.955073,-4.63172 0.0088,-0.003 5.822098,-0.66167 5.955075,-0.66167 3.863101,0 9.642178,-1.13401 13.233497,0.66167 1.705774,0.85288 4.44177,2.09772 5.955073,3.30838 0.730699,0.58454 1.206433,1.46595 1.985025,1.98501 0.975588,0.65039 3.749376,0.88217 4.631725,1.32336 0.557972,0.27898 0.765376,1.04437 1.323348,1.32334 0.813379,0.40669 1.810842,0.30345 2.646701,0.66167 2.51991,1.07998 3.773863,2.49613 6.616747,3.30838 2.745896,0.78454 8.843418,0.28003 11.248472,-1.32334 1.310818,0.066 0.312944,-0.97462 0.661676,-1.32337 0.348734,-0.34872 0.974616,-0.31292 1.32335,-0.66167 0.493183,-0.49318 0.274791,-1.4047 0.661675,-1.98501 2.847451,-4.27119 -1.19657,-11.09001 -3.970049,-14.55684 -1.855025,-2.31879 -4.356989,-3.4856 -6.61675,-5.29342 -1.496449,-1.19716 -2.021538,-2.42583 -3.308374,-3.97004 -1.179028,-1.41484 -2.67095,-2.00928 -3.970049,-3.30838 -1.158425,-1.15842 -2.702583,-2.62808 -2.646698,-2.64671 1.934006,-0.64465 16.512161,-0.23701 18.526895,0 2.019519,0.2376 3.944125,1.02172 5.955074,1.32337 6.137365,0.92059 12.449024,1.3443 18.526895,2.64671 1.161378,0.24886 2.170724,0.98205 3.308377,1.32334 1.077203,0.32316 2.255343,0.26678 3.308373,0.66167 0.7446,0.27921 1.23059,1.07188 1.98502,1.32334 0.62772,0.20926 1.3362,-0.12975 1.98502,0 1.099,0.21981 2.31115,1.48643 3.30838,1.98503 2.77232,1.38616 5.98061,2.39737 8.60177,3.97005 2.35689,1.41414 4.89228,3.43866 7.27842,4.63172 2.0596,1.02981 4.4527,1.19811 6.61675,1.98503 2.23247,0.8118 4.3021,2.11254 6.61675,2.64671 1.73266,0.39984 3.54389,0.34356 5.2934,0.66167 2.70905,0.49255 2.80284,1.70103 5.95507,2.64671 0.84503,0.25349 1.76987,-0.0975 2.64671,0 2.65518,0.29501 4.73988,1.4773 7.27842,1.98501 2.3332,0.46664 4.93003,-0.3914 7.27842,0 4.94077,0.82346 9.49355,0.66167 14.55685,0.66167 0.005,0 4.8755,0.4179 5.2934,0 1.33982,-1.33983 -3.88488,-4.7955 -4.63173,-5.29339 -0.8207,-0.54713 -1.82599,-0.77621 -2.6467,-1.32337 -1.29765,-0.86508 -2.0607,-2.37262 -3.30837,-3.30835 -1.02885,-0.77165 -2.33192,-1.14808 -3.30837,-1.98503 -0.60379,-0.51753 -0.76104,-1.42272 -1.32335,-1.98504 -0.91882,-0.91879 -2.64011,-1.31014 -3.30838,-2.64668 -2.30669,-4.61338 2.54352,-4.61111 5.95507,-5.29341 0.48361,-0.0967 0.83975,-0.56494 1.32335,-0.66167 3.67172,-0.73435 8.16296,0 11.91015,0 3.61666,0 8.41904,-0.87278 11.91015,0 3.91596,1.46849 5.93618,2.38786 9.92512,3.30837 2.6145,0.60336 5.37005,0.55235 7.9401,1.32334 4.17623,1.25288 7.95792,3.53687 11.91015,5.29342 3.17319,1.4103 8.32161,1.63586 11.24848,3.30837 0.81246,0.46427 1.17256,1.52075 1.98501,1.98501 4.10544,2.34596 17.48946,3.30838 22.49694,3.30838 14.22001,0 26.8351,0.0734 40.36219,-3.30838 0.84685,-0.21172 5.49616,-2.18778 5.95505,-2.64668 0.15598,-0.15597 -0.15594,-0.50572 0,-0.66169 0.41265,-0.41265 6.01324,-2.49582 6.61676,-2.64668 0.8559,-0.214 1.76808,0.0799 2.6467,0 9.46433,-0.8604 18.92406,-0.6617 28.45203,-0.6617 0.56403,0 19.03732,0.15124 19.18856,0 0.34872,-0.34872 0.44111,-0.88223 0.66167,-1.32334 2.96031,-5.92061 -11.24093,-9.45142 -14.55685,-9.92513 -2.76399,-0.39484 -5.8861,0.60349 -8.60176,0 -7.60672,-1.69037 3.02964,-1.32334 -3.97005,-1.32334 -1.76448,0 -3.71522,0.78909 -5.29341,0 -0.81471,-0.40735 0.66167,-2.80016 0.66167,-3.30838 0,-1.38258 0.89384,-2.68152 1.32337,-3.97004 0.66934,-2.00806 0.21076,-6.19521 -0.66167,-7.9401 -0.35566,-0.71128 -0.6617,-1.54391 -1.32337,-1.98503 -0.36703,-0.24468 -0.8954,0.10699 -1.32334,0 -4.3697,-1.09242 -9.27976,-0.66167 -13.89518,-0.66167 -1.18972,0 -3.50977,0.37398 -4.63171,0 -2.24547,-0.74849 -1.04487,-5.86224 -1.32337,-5.95508 -2.70986,-0.90329 -7.81383,0 -10.5868,0 -7.17283,0 -14.10851,0.49765 -21.1736,1.98503 -4.24031,0.8927 -8.33741,2.38786 -12.57181,3.30837 -2.40964,0.52384 -4.8937,0.69579 -7.27842,1.32335 -3.53777,0.93099 -6.9365,2.69999 -10.5868,3.30838 -0.45035,0.0751 -3.64048,0.33212 -3.97004,0.66167 -0.15598,0.15596 0.15594,0.50572 0,0.66168 -0.30168,0.30167 -5.59353,0 -6.61676,0 -3.15862,0 -6.82609,-0.47678 -9.92513,0 -1.58699,0.24415 -3.04216,1.09627 -4.63171,1.32335 -4.22504,0.60357 -8.95324,0 -13.2335,0 -1.73672,0 -7.35247,0.58763 -8.60177,-0.66168 -0.81941,-0.81941 0.84155,-6.43687 -0.66168,-7.9401 -0.15596,-0.15595 -0.50571,0.15596 -0.66167,0 -0.15596,-0.15595 0.21397,-0.60818 0,-0.66167 -1.84479,-0.4612 -5.0361,0.5563 -6.61675,0.66167 -1.98063,0.13205 -3.97005,0 -5.95507,0 -3.97005,0 -7.95275,-0.31659 -11.91015,0 -3.54507,0.28361 -7.03778,1.09439 -10.5868,1.32335 -3.30151,0.213 -6.62319,-0.20637 -9.92512,0 -3.768,0.2355 -7.48149,1.07222 -11.24847,1.32335 -6.53066,0.43538 -13.29216,0 -19.85025,0 -0.11747,0 -5.04916,0.24424 -5.2934,0 -0.15596,-0.15596 0.15596,-0.50571 0,-0.66167 -0.15596,-0.15596 -0.50572,0.15596 -0.66167,0 -0.15596,-0.15596 0.15595,-0.50572 0,-0.66168 -0.38998,-0.38998 -5.52495,-1.20204 -6.61675,-1.32335 -4.75502,-0.52833 -9.8427,0.7857 -14.55685,0 -1.58384,-0.26397 -3.042169,-1.09627 -4.631719,-1.32335 -4.941263,-0.70589 -10.237057,0.35582 -15.218521,0 -1.338194,-0.0956 -2.636652,-0.51351 -3.970049,-0.66167 -1.096047,-0.12178 -2.23851,0.26747 -3.308377,0 -6.156544,-1.53914 -2.535888,-10.20056 -5.955072,-11.91015 -1.4786,-0.7393 -11.321904,0 -13.233498,0 -4.931751,0 -9.666927,0.3124 -14.556845,0.66168 -0.964944,0.0689 -9.294958,-0.0788 -9.925124,0 -1.804726,0.22559 -3.492908,1.06613 -5.2934,1.32335 -2.181624,0.31166 -15.255271,0.65432 -18.5268948,0 -1.8153935,-0.36308 -3.4780061,-0.96028 -5.2933996,-1.32335 -0.7371821,-0.14744 -17.8292866,-0.34881 -18.5268956,0 -3.124053,1.56202 -9.619771,9.97609 -11.248472,13.23349 -0.451598,0.9032 -0.440022,3.7484 -0.661675,3.97005 -0.220559,0.22056 -0.882233,0.44112 -0.661675,0.66168 1.395084,1.39508 4.29622,0.47736 5.955074,0.66167 1.117752,0.1242 2.189324,0.54977 3.308374,0.66168 5.884377,0.58844 11.9992123,-0.73325 17.8652205,0 1.38416245,0.17302 2.5891358,1.12607 3.9700491,1.32335 1.7467341,0.24953 3.5631966,-0.34604 5.2933996,0 1.6471027,0.32942 2.9892888,1.63307 4.6317248,1.98502 1.509635,0.3235 3.091738,-0.11 4.631724,0 3.734803,0.26677 9.048118,1.13654 12.571823,2.64671 2.642526,1.13249 1.120468,1.25571 3.308373,1.98501 1.066919,0.35565 2.302473,0.15872 3.308374,0.66167 2.164273,1.08214 9.08308,4.27101 9.925124,5.95508 1.200219,2.40043 -7.81984,3.10216 -9.263449,3.30838 -2.099423,0.29993 -5.859319,-0.0319 -7.940098,0.66167 -0.29591,0.0986 -0.382688,0.52218 -0.661675,0.66167 -0.688814,0.3444 -0.634537,-0.34441 -1.323351,0 -1.973791,0.98689 -4.967107,2.6467 -7.278422,2.6467 -4.540346,0 -8.675931,0.67228 -13.2334984,1.32337 z"
       id="path8" />
    <rect
       style="opacity:0.508498;fill:#0f581e;fill-opacity:1;stroke-width:0.0329512"
       id="rect8"
       width="395.77966"
       height="3.8371954"
       x="-34.808151"
       y="288.4129"
       ry="0.032990575" />
  </g>
</svg>
